<?xml version="1.0" encoding="utf-8"?>
<!-- Generator: Adobe Illustrator 21.0.0, SVG Export Plug-In . SVG Version: 6.00 Build 0)  -->
<svg version="1.1" id="Layer_1" xmlns="http://www.w3.org/2000/svg" xmlns:xlink="http://www.w3.org/1999/xlink" x="0px" y="0px"
	 viewBox="0 0 582.4 116.2" style="enable-background:new 0 0 582.4 116.2;" xml:space="preserve">
<style type="text/css">
	.st0{fill:#FFFFFF;}
	.st1{fill:none;}
</style>
<g>
	<g>
		<path class="st0" d="M582.4,116.2H466.2V0l116.2,0V116.2z M480.2,102.1h88.1V14.1l-88.1,0V102.1z"/>
		<path class="st0" d="M547.6,56c2.8-2.1,5.2-5.2,5.2-11.4c0-10.2-7.7-15.4-23-15.4h-31.5l-1.3,1.3v55.3l1.3,1.3h33.6
			c14.4,0,23.1-6.5,23.1-17.3C554.9,63.3,551.5,58.5,547.6,56z M530.5,51h-20.1V40.7h20.1c7.4,0,8.9,2,8.9,5.2
			C539.4,49.1,537.9,51,530.5,51z M510.4,62.6h20.4c9.5,0,10.7,3.2,10.7,6.3c0,4.8-3,6.6-10.7,6.6h-20.4V62.6z"/>
	</g>
</g>
<rect x="410" y="-59.7" class="st1" width="232.2" height="231.7"/>
<g>
	<polygon class="st0" points="77.3,32.5 77.3,27.4 88.2,27.4 88.9,26.7 88.9,24.7 88.2,24 77.3,24 77.3,19.7 90.5,19.7 91.2,19 
		91.2,17 90.5,16.3 74.4,16.3 73.7,17 73.7,35.1 74.4,35.8 90.8,35.8 91.5,35.1 91.5,33.2 90.8,32.5 	"/>
	<polygon class="st0" points="115.7,16.3 114.9,17 114.9,30.1 102.8,16.6 102.2,16.3 99.1,16.3 98.4,17 98.4,35.1 99.1,35.8 
		101.2,35.8 101.9,35.1 101.9,20.8 115.1,35.6 115.7,35.8 117.8,35.8 118.6,35.1 118.6,17 117.8,16.3 	"/>
	<polygon class="st0" points="125.7,16.3 125,17 125,19 125.7,19.7 133.7,19.7 133.7,35.1 134.4,35.8 136.6,35.8 137.3,35.1 
		137.3,19.7 145.3,19.7 146,19 146,17 145.3,16.3 	"/>
	<path class="st0" d="M171.3,22.1c0-2.6-1.4-5.8-7.8-5.8h-10.4l-0.7,0.7v18.1l0.7,0.7h2.2l0.7-0.7v-7.3h6l5.6,7.7l0.6,0.3h2.7
		l0.6-1.1l-5.2-7.1C168.8,27.1,171.3,25.5,171.3,22.1z M156,19.7h7c4,0,4.8,0.9,4.8,2.4c0,1.8-1.3,2.4-4.8,2.4h-7V19.7z"/>
	<polygon class="st0" points="183.6,32.5 183.6,27.4 194.5,27.4 195.2,26.7 195.2,24.7 194.5,24 183.6,24 183.6,19.7 196.8,19.7 
		197.5,19 197.5,17 196.8,16.3 180.7,16.3 180,17 180,35.1 180.7,35.8 197.1,35.8 197.8,35.1 197.8,33.2 197.1,32.5 	"/>
	<path class="st0" d="M216.4,16.3h-10.6l-0.7,0.7v18.1l0.7,0.7h2.2l0.7-0.7v-7h7.7c6.4,0,7.7-3.2,7.7-5.9
		C224.1,19.5,222.7,16.3,216.4,16.3z M208.7,19.7h7.1c4,0,4.8,1,4.8,2.5c0,1.6-0.8,2.5-4.8,2.5h-7.1V19.7z"/>
	<path class="st0" d="M240.4,15.9c-6.8,0-11.3,4.1-11.3,10.3c0,6.9,5.9,10.1,11.3,10.1c5.4,0,11.3-3.2,11.3-10.1
		C251.7,20,247.2,15.9,240.4,15.9z M240.4,32.9c-1.8,0-7.6-0.5-7.6-7.1c0-3.9,3.1-6.6,7.6-6.6c4.5,0,7.6,2.7,7.6,6.6
		C248,32.4,242.2,32.9,240.4,32.9z"/>
	<path class="st0" d="M268,24c-3.8-0.3-6.1-0.7-6.1-2.4c0-2.2,3.4-2.5,5.5-2.5c4.3,0,6,1.9,6.7,2.8l0.1,0.1l1,0.1l1.6-1.3l0.1-1
		c-0.7-0.9-3.3-4-9.5-4c-5.9,0-9.2,2.2-9.2,6.1c0,4.6,5.2,5.1,9.4,5.5c3.9,0.4,6.4,0.7,6.4,2.5c0,2.8-5.3,2.9-5.9,2.9
		c-5.1,0-6.6-2-7.6-3.4l-1-0.1l-1.7,1.4l-0.1,1c1.6,1.7,3.9,4.4,10.1,4.4c7.2,0,9.8-3.2,9.8-6.2C277.7,24.9,272.3,24.4,268,24z"/>
	<path class="st0" d="M294.7,16.3H292l-0.6,0.4l-9.3,18.1l0.6,1h2.4l0.6-0.4l2.2-4.3h10.8l2.1,4.3l0.6,0.4h2.5l0.6-1l-9.3-18.1
		L294.7,16.3z M297,27.8h-7.4l3.7-7.4L297,27.8z"/>
	<path class="st0" d="M319.3,25.6l-0.7,0.7v1.9l0.7,0.7h6.5c-0.7,2.9-3.7,3.9-6.3,3.9c-4.7,0-7.5-2.4-7.5-6.5c0-4.7,2.5-7.2,7.3-7.2
		c1.5,0,5.1,0.4,6.5,3.7l1,0.3l1.8-1l0.3-0.9c-1.5-3.4-5.1-5.4-9.6-5.4c-6.8,0-11,3.9-11,10.2c0,4.9,2.9,10.1,11,10.1
		c3.3,0,5.2-0.9,6.5-2v1l0.7,0.7h1.9l0.7-0.7v-8.9l-0.7-0.7H319.3z"/>
	<polygon class="st0" points="354.2,32.5 340.7,32.5 340.7,27.4 351.6,27.4 352.3,26.7 352.3,24.7 351.6,24 340.7,24 340.7,19.7 
		353.9,19.7 354.6,19 354.6,17 353.9,16.3 337.8,16.3 337.1,17 337.1,35.1 337.8,35.8 354.2,35.8 354.9,35.1 354.9,33.2 	"/>
</g>
<g>
	<path class="st0" d="M51.7,73.6c2.2-1.8,4.6-4.8,4.6-10.6c0-9.8-9.3-14.7-23.7-14.7h-31L0,49.8v51.5l1.5,1.5h33
		c13.6,0,23.8-6.2,23.8-16.5C58.3,80.5,55.2,76,51.7,73.6z M33.2,68.6H13.1v-8.9h20.1c7.4,0,10,2.1,10,4.5
		C43.2,66.5,40.6,68.6,33.2,68.6z M13.1,80h20.4c8.5,0,11.7,2.8,11.7,5.6c0,3.6-3.6,5.8-11.7,5.8H13.1V80z"/>
	<path class="st0" d="M93.5,50.9c-17.5,0-28,9.4-28,25.1c0,3.5,0.7,10.2,5.7,15.9c4.9,5.7,12.4,8.5,22.2,8.5
		c9.8,0,17.3-2.9,22.2-8.5c5-5.7,5.7-12.4,5.7-15.9C121.4,60.3,111,50.9,93.5,50.9z M93.5,90.1c-6.1,0-16.2-1.9-16.2-14.5
		c0-12.8,11.4-14.2,16.2-14.2c4.9,0,16.2,1.4,16.2,14.2C109.7,88.2,99.5,90.1,93.5,90.1z"/>
	<polygon class="st0" points="171,52 169.5,53.6 169.5,81.7 142.5,52.5 141.3,52 132.2,52 130.7,53.6 130.7,97.9 132.2,99.5 
		140.5,99.5 142,97.9 142,68.6 170.3,99 171.4,99.5 179.3,99.5 180.8,97.9 180.8,53.6 179.3,52 	"/>
	<polygon class="st0" points="235.7,52 234.2,53.6 234.2,81.7 207.2,52.5 206.1,52 196.9,52 195.4,53.6 195.4,97.9 196.9,99.5 
		205.2,99.5 206.7,97.9 206.7,68.6 235,99 236.1,99.5 244,99.5 245.5,97.9 245.5,53.6 244,52 	"/>
	<polygon class="st0" points="270.8,89 270.8,80.3 296,80.3 297.6,78.8 297.6,71.3 296,69.8 270.8,69.8 270.8,62.5 300.4,62.5 
		301.9,61 301.9,53.6 300.4,52 260.6,52 259.1,53.6 259.1,97.9 260.6,99.5 301.1,99.5 302.6,97.9 302.6,90.5 301.1,89 	"/>
	<path class="st0" d="M342.2,52h-9.9l-1.4,0.9l-21.8,44.4l1.4,2.2h9.2l1.4-0.9l4.3-9.3H349l4.2,9.3l1.4,0.9h9.2l1.4-2.2l-21.5-44.4
		L342.2,52z M344.2,78.8h-13.8l6.9-14.7L344.2,78.8z"/>
	<path class="st0" d="M426.2,48.3h-10.1l-1.5,1.5v28.7c0,7.2-1.9,13.9-15.8,13.9c-13.9,0-15.8-6.7-15.8-13.9V49.8l-1.5-1.5h-10.1
		l-1.5,1.5v29.4c0,16.3,10,24.9,28.9,24.9c18.9,0,28.9-8.6,28.9-24.9V49.8L426.2,48.3z"/>
</g>
<rect x="-68.3" y="-23.2" class="st1" width="565.2" height="165.7"/>
</svg>
