<?xml version="1.0" encoding="utf-8"?>
<!-- Generator: Adobe Illustrator 21.0.0, SVG Export Plug-In . SVG Version: 6.00 Build 0)  -->
<svg version="1.1" id="Layer_1" xmlns="http://www.w3.org/2000/svg" xmlns:xlink="http://www.w3.org/1999/xlink" x="0px" y="0px"
	 viewBox="0 0 921.3 620.8" style="enable-background:new 0 0 921.3 620.8;" xml:space="preserve">
<style type="text/css">
	.st0{fill:none;}
	.st1{fill:#F16823;}
	.st2{fill:#E1E1EB;}
	.st3{fill:#FFFFFF;}
	.st4{fill:#939498;}
	.st5{fill:#F16924;}
	.st6{fill:#FFFEF4;}
	.st7{fill:#CCCBC8;}
	.st8{fill:#CECCCC;}
	.st9{fill:#D35E29;}
	.st10{fill:#142D38;}
	.st11{fill:#6B6D73;}
	.st12{font-family:'SegoeUI-Bold';}
	.st13{font-size:14px;}
</style>
<g>
	<g>
		
			<ellipse transform="matrix(0.858 -0.5137 0.5137 0.858 -39.4164 258.3527)" class="st0" cx="447.5" cy="200.5" rx="13.8" ry="13.8"/>
	</g>
	<g>
		<g>
			<path class="st1" d="M623.5,158.3l207,167c-1,0.2-4.6,18-5.7,18l-26.9,101l-345.7-6.4l-28.9-101.1c-1,0-5.6-11.4-6.7-11.6
				L623.5,158.3z"/>
			<rect x="455.3" y="241.6" class="st2" width="330.2" height="187.2"/>
			<path class="st3" d="M812.3,444.3h-8v-206c0-6-6.1-10.8-13.6-10.8H455.9c-7.5,0-13.6,4.8-13.6,10.8v206h-8.9
				c-9.9,0-17.9,8-17.9,17.9v109.9c0,9.9,8,17.9,17.9,17.9h378.9c9.9,0,17.9-8,17.9-17.9V462.2C830.2,452.3,822.2,444.3,812.3,444.3
				z M487.4,245.1h271.8c10.8,0,19.6,6.9,19.6,15.5c0,8.6-8.8,15.5-19.6,15.5H487.4c-10.8,0-19.6-6.9-19.6-15.5
				C467.8,252,476.5,245.1,487.4,245.1z M487.4,290.1h271.8c10.8,0,19.6,6.9,19.6,15.5c0,8.6-8.8,15.5-19.6,15.5H487.4
				c-10.8,0-19.6-6.9-19.6-15.5C467.8,297,476.5,290.1,487.4,290.1z M487.4,335.1h271.8c10.8,0,19.6,6.9,19.6,15.5
				c0,8.6-8.8,15.5-19.6,15.5H487.4c-10.8,0-19.6-7-19.6-15.5C467.8,342,476.5,335.1,487.4,335.1z M487.4,380h271.8
				c10.8,0,19.6,6.9,19.6,15.5c0,8.6-8.8,15.5-19.6,15.5H487.4c-10.8,0-19.6-6.9-19.6-15.5C467.8,387,476.5,380,487.4,380z"/>
			<path class="st1" d="M679.7,450.9L629,493.1c-1.6,1.4-3.6,2-5.6,2c-2,0-3.9-0.7-5.5-2l-50.6-42.2L428.6,589.6
				c1.4,0.4,2.7,0.9,4.2,0.9h381.3c1.5,0,2.9-0.5,4.2-0.9L679.7,450.9z"/>
			<path class="st1" d="M831.5,330.4c0-1.8-0.5-3.5-1-5.2L693.1,439.7l137.6,137.6c0.3-1.4,0.8-2.7,0.8-4.2V330.4z"/>
			<path class="st1" d="M416.5,325.3c-0.5,1.7-1.1,3.3-1.1,5.2v242.7c0,1.5,0.5,2.8,0.9,4.2l137.6-137.6L416.5,325.3z"/>
		</g>
	</g>
	<polygon class="st4" points="879.4,526.7 746.3,490.7 791,620.8 810.8,571.6 851.5,611.5 862.8,600.1 874.3,587.7 833.4,548.9 	"/>
	<g>
		<polygon class="st3" points="753,485.9 794.4,606.6 812.8,560.9 850.5,597.9 860.9,587.3 		"/>
		<polygon class="st3" points="753,485.9 876.3,519.3 833.7,539.9 871.6,575.9 860.9,587.3 		"/>
	</g>
	<circle class="st4" cx="260.5" cy="393.3" r="126.7"/>
	<circle class="st4" cx="381.8" cy="117.1" r="96"/>
	<g>
		<g>
			<g>
				<g>
					<path class="st2" d="M318.2,405.5c8.7,0,15.8-7.1,15.8-15.8c0-8.7-7.1-15.8-15.8-15.8h-7.6v31.5H318.2z"/>
				</g>
			</g>
			<path class="st5" d="M320.1,458.5c0,2.5-2,4.5-4.5,4.5l0,0c-2.5,0-4.5-2-4.5-4.5V320.9c0-2.5,2-4.5,4.5-4.5l0,0
				c2.5,0,4.5,2,4.5,4.5V458.5z"/>
			<path class="st5" d="M215.3,361.4c-15.6,0-28.3,12.7-28.3,28.3c0,15.6,12.7,28.3,28.3,28.3c0.1,0,0.1,0,0.2,0L215.3,361.4z"/>
			<path class="st2" d="M216.8,418.1c0,0,11.8,50.7,19.6,51.9c7.8,1.2,10.9-3.9,8.6-10.5c-2.3-6.6-6.2-43.6-5.5-47.9
				c0.8-4.3-24,6.5-24,6.5"/>
			<g>
				<g>
					<path class="st6" d="M227.7,361.3h-10.9v56.7h10.9c0,0,57.1-9.6,85.3,44.6v-72.4v-1.1v-72.4
						C284.8,370.9,227.7,361.3,227.7,361.3z"/>
				</g>
			</g>
			<path class="st7" d="M221.9,370.7c0,0,57.3,9.7,86.1-32.7c0,0-9,38.6-85.3,39.7L221.9,370.7z"/>
		</g>
	</g>
	<g>
		<circle class="st4" cx="95.1" cy="149.6" r="95.1"/>
		<g>
			<rect x="44.2" y="146" class="st3" width="101.8" height="0.8"/>
			<g>
				<rect x="99.4" y="151.9" class="st3" width="46.7" height="11.7"/>
				<rect x="44.2" y="172.2" class="st3" width="46.6" height="43.9"/>
				<rect x="44.2" y="151.9" class="st3" width="46.6" height="11.7"/>
				<rect x="99.4" y="172.2" class="st3" width="46.7" height="43.9"/>
				<g>
					<polygon class="st8" points="44.2,146.8 44.2,151.9 90.8,151.9 90.8,148.2 99.4,148.2 99.4,151.9 146,151.9 146,146.8 					"/>
					<rect x="90.8" y="148.2" class="st9" width="8.5" height="3.7"/>
				</g>
				<rect x="90.8" y="172.2" class="st1" width="8.5" height="43.9"/>
				<rect x="90.8" y="151.9" class="st5" width="8.5" height="11.7"/>
				<rect x="90.8" y="114.9" class="st1" width="8.5" height="33.2"/>
				<rect x="44.2" y="163.6" class="st1" width="46.6" height="8.5"/>
				<rect x="99.4" y="163.6" class="st1" width="46.7" height="8.5"/>
				<rect x="90.8" y="163.6" class="st5" width="8.5" height="8.5"/>
				<rect x="33.4" y="114.9" class="st3" width="57.5" height="33.2"/>
				<rect x="99.4" y="114.9" class="st3" width="57.5" height="33.2"/>
			</g>
			<polygon class="st10" points="68.3,97.4 80.7,83.2 92.1,109.2 90.7,113.8 			"/>
			<path class="st1" d="M55.7,115.4c0,0-1.6-16.1,5.5-20.4c7.1-4.3,33.1,20.3,33.1,20.3L55.7,115.4z"/>
			<polygon class="st10" points="122.3,97.4 109.8,83.2 98.4,109.2 99.9,113.8 			"/>
			<path class="st1" d="M135,115c0,0,1.5-15.8-5.6-20c-7.1-4.3-33.1,20.3-33.1,20.3L135,115z"/>
			<path class="st10" d="M100.2,112c0,1.9-1.5,3.4-3.4,3.4h-4.3c-1.9,0-3.4-1.5-3.4-3.4l0,0c0-1.9,1.5-3.4,3.4-3.4h4.3
				C98.6,108.7,100.2,110.2,100.2,112L100.2,112z"/>
		</g>
	</g>
	<g>
		<g>
			<path class="st3" d="M344.3,58.5v109.4c-3.4-0.3-5.4-0.5-5.4-0.5l-4.6,16.4H429h7.9h1c2.5,0,4.6-1.7,5.3-4h0.2v-1.6V87.7V58.5
				H344.3z"/>
			<path class="st11" d="M442,59.9v27.8v90.5v0.6l-0.2,0.6c-0.5,1.8-2.2,3-4,3h-1H429h-92.9l3.8-13.5c0.9,0.1,2.4,0.2,4.3,0.4
				l1.5,0.1v-1.5v-108H442 M443.4,58.5h-99.1v109.4c-3.4-0.3-5.4-0.5-5.4-0.5l-4.6,16.4H429h7.9h1c2.5,0,4.6-1.7,5.3-4h0.2v-1.6
				V87.7V58.5L443.4,58.5z"/>
		</g>
		<g>
			<path class="st3" d="M327.1,58.5v29.2v25.4v65.1c0,3.1,2.5,5.6,5.6,5.6h8.9c3.1,0,5.6-2.5,5.6-5.6v-65.1V87.7V58.5H327.1z"/>
			<path class="st11" d="M345.7,59.9v27.8v25.4v65.1c0,2.3-1.9,4.2-4.2,4.2h-8.9c-2.3,0-4.2-1.9-4.2-4.2v-65.1V87.7V59.9H345.7
				 M347.1,58.5h-20v29.2v25.4v65.1c0,3.1,2.5,5.6,5.6,5.6h8.9c3.1,0,5.6-2.5,5.6-5.6v-65.1V87.7V58.5L347.1,58.5z"/>
		</g>
		<path class="st11" d="M341.5,63.9v110.2c0,1.1-0.9,1.9-1.9,1.9h-5.1c-1.1,0-1.9-0.9-1.9-1.9V63.9h-1.7v110.2c0,2,1.6,3.6,3.6,3.6
			h5.1c2,0,3.6-1.6,3.6-3.6V63.9H341.5z"/>
		<g>
			<g>
				<rect x="336.2" y="63.9" class="st11" width="1.7" height="107.2"/>
			</g>
		</g>
		<rect x="353" y="97.2" class="st11" width="81.3" height="14.9"/>
		<rect x="353" y="118.7" class="st11" width="39.2" height="4.3"/>
		<rect x="395.1" y="118.7" class="st11" width="39.2" height="4.3"/>
		<rect x="353" y="131.2" class="st11" width="39.2" height="4.3"/>
		<rect x="395.1" y="131.2" class="st11" width="39.2" height="4.3"/>
		<rect x="353" y="143.8" class="st11" width="39.2" height="4.3"/>
		<rect x="395.1" y="143.8" class="st11" width="39.2" height="4.3"/>
		<rect x="353" y="156.4" class="st11" width="39.2" height="4.3"/>
		<rect x="395.1" y="156.4" class="st11" width="39.2" height="4.3"/>
		<rect x="353" y="168.9" class="st11" width="39.2" height="4.3"/>
		<rect x="395.1" y="168.9" class="st11" width="39.2" height="4.3"/>
	</g>
</g>
<text transform="matrix(1 0 0 1 353.0153 87.251)" class="st11 st12 st13">NOUVELLES</text>
</svg>
