<svg width="750" height="200" viewBox="0 0 750 200" version="1.1" xmlns="http://www.w3.org/2000/svg" xmlns:xlink="http://www.w3.org/1999/xlink" xmlns:figma="http://www.figma.com/figma/ns">
<title>slide-2.2</title>
<desc>Created using Figma</desc>
<g id="Canvas" transform="translate(-335 614)" figma:type="canvas">
<mask id="mask0_alpha" mask-type="alpha">
<path d="M 335 -614L 1085 -614L 1085 -414L 335 -414L 335 -614Z" fill="#FFFFFF"/>
</mask>
<g id="slide-2.2" style="mix-blend-mode:normal;" mask="url(#mask0_alpha)" figma:type="frame">
<g id="Group" style="mix-blend-mode:normal;" figma:type="frame">
<g id="Vector" style="mix-blend-mode:normal;" figma:type="vector">
<use xlink:href="#path0_fill" transform="translate(904.8 -539.724)" fill="#47494F" style="mix-blend-mode:normal;"/>
</g>
<g id="Vector" style="mix-blend-mode:normal;" figma:type="vector">
<use xlink:href="#path1_fill" transform="translate(513.2 -468.111)" fill="#47494F" style="mix-blend-mode:normal;"/>
</g>
<g id="Vector" style="mix-blend-mode:normal;" figma:type="vector">
<use xlink:href="#path2_fill" transform="translate(690.5 -569.911)" fill="#C2C2C5" style="mix-blend-mode:normal;"/>
</g>
<g id="Vector" style="mix-blend-mode:normal;" figma:type="vector">
<use xlink:href="#path3_fill" transform="translate(508.8 -519.912)" fill="#F3E7C1" style="mix-blend-mode:normal;"/>
</g>
<g id="Vector" style="mix-blend-mode:normal;" figma:type="vector">
<use xlink:href="#path4_fill" transform="translate(818.8 -532.83)" fill="#47494F" style="mix-blend-mode:normal;"/>
</g>
<g id="Vector" style="mix-blend-mode:normal;" figma:type="vector">
<use xlink:href="#path5_fill" transform="translate(815.8 -528.989)" fill="#47494F" style="mix-blend-mode:normal;"/>
</g>
<g id="Group" style="mix-blend-mode:normal;" figma:type="frame">
<g id="Vector" style="mix-blend-mode:normal;" figma:type="vector">
<use xlink:href="#path6_fill" transform="translate(488 -505.712)" fill="#47494F" style="mix-blend-mode:normal;"/>
</g>
<g id="Vector" style="mix-blend-mode:normal;" figma:type="vector">
<use xlink:href="#path7_fill" transform="translate(516.9 -516.011)" fill="#C2C2C5" style="mix-blend-mode:normal;"/>
</g>
</g>
<g id="Vector" style="mix-blend-mode:normal;" figma:type="vector">
<use xlink:href="#path8_fill" transform="translate(824.3 -532.212)" fill="#FAAE81" style="mix-blend-mode:normal;"/>
</g>
<g id="Vector" style="mix-blend-mode:normal;" figma:type="vector">
<use xlink:href="#path9_fill" transform="translate(531.1 -529.611)" fill="#939498" style="mix-blend-mode:normal;"/>
</g>
<g id="Vector" style="mix-blend-mode:normal;" figma:type="vector">
<use xlink:href="#path10_fill" transform="translate(514.9 -529.611)" fill="#939498" style="mix-blend-mode:normal;"/>
</g>
<g id="Vector" style="mix-blend-mode:normal;" figma:type="vector">
<use xlink:href="#path11_fill" transform="translate(509.7 -531.712)" fill="#939498" style="mix-blend-mode:normal;"/>
</g>
<g id="Vector" style="mix-blend-mode:normal;" figma:type="vector">
<use xlink:href="#path12_fill" transform="translate(511.7 -505.812)" fill="#C2C2C5" style="mix-blend-mode:normal;"/>
</g>
<g id="Vector" style="mix-blend-mode:normal;" figma:type="vector">
<use xlink:href="#path13_fill" transform="translate(513.2 -509.712)" fill="#F3E7C1" style="mix-blend-mode:normal;"/>
</g>
<g id="Vector" style="mix-blend-mode:normal;" figma:type="vector">
<use xlink:href="#path14_fill" transform="translate(500.9 -477.312)" fill="#6C6D73" style="mix-blend-mode:normal;"/>
</g>
<g id="Vector" style="mix-blend-mode:normal;" figma:type="vector">
<use xlink:href="#path15_fill" transform="translate(903.4 -447.611)" fill="#47494F" style="mix-blend-mode:normal;"/>
</g>
<g id="Vector" style="mix-blend-mode:normal;" figma:type="vector">
<use xlink:href="#path16_fill" transform="translate(498 -453.812)" fill="#47494F" style="mix-blend-mode:normal;"/>
</g>
<g id="Vector" style="mix-blend-mode:normal;" figma:type="vector">
<use xlink:href="#path17_fill" transform="translate(590.389 -460.223)" fill="#47494F" style="mix-blend-mode:normal;"/>
</g>
<g id="Vector" style="mix-blend-mode:normal;" figma:type="vector">
<use xlink:href="#path18_fill" transform="matrix(0.0301608 -0.9995 0.9995 0.0301608 595.788 -420.464)" fill="#C2C2C5" style="mix-blend-mode:normal;"/>
</g>
<g id="Vector" style="mix-blend-mode:normal;" figma:type="vector">
<use xlink:href="#path19_fill" transform="matrix(0.0302061 -0.9995 0.9995 0.0302061 598.568 -423.083)" fill="#47494F" style="mix-blend-mode:normal;"/>
</g>
<g id="Vector" style="mix-blend-mode:normal;" figma:type="vector">
<use xlink:href="#path20_fill" transform="matrix(0.0301478 -0.9995 0.9995 0.0301478 600.01 -424.441)" fill="#C2C2C5" style="mix-blend-mode:normal;"/>
</g>
<g id="Vector" style="mix-blend-mode:normal;" figma:type="vector">
<use xlink:href="#path21_fill" transform="translate(606.198 -444.414)" fill="#939498" style="mix-blend-mode:normal;"/>
</g>
<g id="Vector" style="mix-blend-mode:normal;" figma:type="vector">
<use xlink:href="#path22_fill" transform="translate(541.689 -460.223)" fill="#47494F" style="mix-blend-mode:normal;"/>
</g>
<g id="Vector" style="mix-blend-mode:normal;" figma:type="vector">
<use xlink:href="#path23_fill" transform="matrix(0.0301624 -0.9995 0.9995 0.0301624 547.07 -420.485)" fill="#C2C2C5" style="mix-blend-mode:normal;"/>
</g>
<g id="Vector" style="mix-blend-mode:normal;" figma:type="vector">
<use xlink:href="#path24_fill" transform="matrix(0.0302051 -0.9995 0.9995 0.0302051 549.849 -423.104)" fill="#47494F" style="mix-blend-mode:normal;"/>
</g>
<g id="Vector" style="mix-blend-mode:normal;" figma:type="vector">
<use xlink:href="#path25_fill" transform="matrix(0.0301472 -0.9995 0.9995 0.0301472 551.293 -424.461)" fill="#C2C2C5" style="mix-blend-mode:normal;"/>
</g>
<g id="Vector" style="mix-blend-mode:normal;" figma:type="vector">
<use xlink:href="#path26_fill" transform="translate(557.398 -444.414)" fill="#939498" style="mix-blend-mode:normal;"/>
</g>
<g id="Vector" style="mix-blend-mode:normal;" figma:type="vector">
<use xlink:href="#path27_fill" transform="translate(536.3 -467.111)" fill="#D7D7D9" style="mix-blend-mode:normal;"/>
</g>
<g id="Vector" style="mix-blend-mode:normal;" figma:type="vector">
<use xlink:href="#path28_fill" transform="translate(493.2 -456.912)" fill="#FAAE81" style="mix-blend-mode:normal;"/>
</g>
<g id="Vector" style="mix-blend-mode:normal;" figma:type="vector">
<use xlink:href="#path29_fill" transform="translate(898.7 -427.812)" fill="#47494F" style="mix-blend-mode:normal;"/>
</g>
<g id="Vector" style="mix-blend-mode:normal;" figma:type="vector">
<use xlink:href="#path30_fill" transform="translate(902.4 -424.111)" fill="#939498" style="mix-blend-mode:normal;"/>
</g>
<g id="Vector" style="mix-blend-mode:normal;" figma:type="vector">
<use xlink:href="#path31_fill" transform="translate(912 -455.814)" fill="#47494F" style="mix-blend-mode:normal;"/>
</g>
<g id="Vector" style="mix-blend-mode:normal;" figma:type="vector">
<use xlink:href="#path32_fill" transform="translate(886.5 -465.611)" fill="#939498" style="mix-blend-mode:normal;"/>
</g>
<g id="Vector" style="mix-blend-mode:normal;" figma:type="vector">
<use xlink:href="#path33_fill" transform="translate(892.4 -471.187)" fill="#47494F" style="mix-blend-mode:normal;"/>
</g>
<g id="Vector" style="mix-blend-mode:normal;" figma:type="vector">
<use xlink:href="#path34_fill" transform="translate(904.4 -470.412)" fill="#939498" style="mix-blend-mode:normal;"/>
</g>
<g id="Vector" style="mix-blend-mode:normal;" figma:type="vector">
<use xlink:href="#path35_fill" transform="translate(893.1 -459.011)" fill="#939498" style="mix-blend-mode:normal;"/>
</g>
<g id="Group" style="mix-blend-mode:normal;" figma:type="frame">
<g id="00234-192" style="mix-blend-mode:normal;" figma:type="text">
<use xlink:href="#path36_fill" transform="matrix(1 0.00496 -0.00496 1 825.265 -509.759)" fill="#C2C2C5" style="mix-blend-mode:normal;"/>
</g>
</g>
<g id="Vector" style="mix-blend-mode:normal;" figma:type="vector">
<use xlink:href="#path37_fill" transform="translate(690.5 -569.911)" fill="#E1E1E3" style="mix-blend-mode:normal;"/>
</g>
<g id="Vector" style="mix-blend-mode:normal;" figma:type="vector">
<use xlink:href="#path38_fill" transform="translate(634.5 -519.912)" fill="#939498" style="mix-blend-mode:normal;"/>
</g>
<g id="Vector" style="mix-blend-mode:normal;" figma:type="vector">
<use xlink:href="#path39_fill" transform="translate(507.8 -519.912)" fill="#939498" style="mix-blend-mode:normal;"/>
</g>
<g id="Vector" style="mix-blend-mode:normal;" figma:type="vector">
<use xlink:href="#path40_fill" transform="translate(753.537 -566.275)" fill="#C2C2C5" style="mix-blend-mode:normal;"/>
</g>
<g id="Vector" style="mix-blend-mode:normal;" figma:type="vector">
<use xlink:href="#path41_fill" transform="translate(758.699 -551.912)" fill="#C2C2C5" style="mix-blend-mode:normal;"/>
</g>
<g id="Vector" style="mix-blend-mode:normal;" figma:type="vector">
<use xlink:href="#path42_fill" transform="translate(733.1 -537.812)" fill="#939498" style="mix-blend-mode:normal;"/>
</g>
</g>
</g>
</g>
<defs>
<path id="path0_fill" d="M 15.5 1.4129L 13.6 1.4129L 13.6 0.912902C 13.6 -0.287098 10.8 -0.287104 10.8 0.812896C 10.8 1.9129 10.8 1.1129 10.8 1.3129L 1.09999 1.3129C -1.22786e-05 1.3129 1.2207e-05 2.01291 1.2207e-05 2.01291C 1.2207e-05 3.91291 5.09998 5.51292 10.9 5.71292C 10.9 7.31292 10.9 10.8129 10.9 12.1129C 10.9 18.4129 0.500012 22.6129 0.500012 22.6129L 13.7 22.6129C 13.7 22.6129 13.7 11.8129 13.7 5.8129L 15.6 5.8129C 16.8 5.8129 17.8 4.81291 17.8 3.61291C 17.7 2.41291 16.7 1.4129 15.5 1.4129Z"/>
<path id="path1_fill" d="M 6.10352e-06 5.19999L 9.00001 5.19999L 7.10001 6.10352e-06L 6.10352e-06 6.10352e-06L 6.10352e-06 5.19999Z"/>
<path id="path2_fill" d="M 120.5 50L 67.5 3.05176e-06L 57.3 6.5L 12.1 16.5L -6.10352e-06 52L 120.5 50Z"/>
<path id="path3_fill" d="M 408.6 3.99999L 401.7 3.99999L 41.4 3.99999L 39.4 -1.2207e-05L 1.2207e-05 -1.2207e-05L 2.90001 14.2L 3.8 18.9L 7.50001 37.4L 8.00001 39.9L 13.3 66.1L 274 66.1C 274 66.1 321.7 69.5 346.6 54.3C 369.1 40.6 420.3 3.99999 420.3 3.99999L 408.6 3.99999Z"/>
<path id="path4_fill" d="M 21.6 0.418317C 20 2.11832 17.6 3.41832 14.3 3.41832C 11.3 3.41832 6.60001 3.41832 3.50001 3.41832C 3.20001 2.31832 2.6 1.61833 1.8 1.61833C 0.8 1.61833 1.2207e-05 2.91833 1.2207e-05 4.61833C 1.2207e-05 6.21833 0.8 7.61833 1.8 7.61833C 2.6 7.61833 3.20001 6.81834 3.50001 5.71834C 6.60001 5.71834 11.3 5.71834 14.3 5.71834C 17.6 5.71834 20.1 6.91833 21.6 8.71834C 23.2 10.4183 23.6 5.91833 23.6 4.61833C 23.6 3.11833 23.2 -1.38168 21.6 0.418317Z"/>
<path id="path5_fill" d="M 10.4 0.577766C 10.4 5.67777 1.2207e-05 9.87778 1.2207e-05 9.87778L 13.2 9.87778C 13.2 9.87778 13.2 6.67777 13.2 0.577766C 13.2 0.577766 10.4 -0.722234 10.4 0.577766Z"/>
<path id="path6_fill" d="M 28.9 25.7L 28.4 23.2L 24.1 23.2L 22.3 18.9C 22.3 18.9 19.1 18.9 14.5 18.9L 24.7 4.70001L 23.8 0L 10.3 18.8C 10 18.8 9.69999 18.8 9.39999 18.8C 2.19999 18.8 -6.10352e-06 23.1 -6.10352e-06 23.1L -6.10352e-06 25.6L 25.3 25.6L 28.9 25.7Z"/>
<path id="path7_fill" d="M -1.2207e-05 36.3L 5.2 62.1L 265.9 62.1C 265.9 62.1 313.6 65.5 338.5 50.3C 361 36.6 412.2 1.2207e-05 412.2 1.2207e-05L 407.5 1.2207e-05C 370.4 20.4 303.9 46.9 220.9 46.9C 125.9 47 30.8 39.4 -1.2207e-05 36.3Z"/>
<path id="path8_fill" d="M 6.89998 1.60001C 6.89998 2.50001 6.2 3.20001 5.3 3.20001L 1.59999 3.20001C 0.699988 3.20001 1.2207e-05 2.50001 1.2207e-05 1.60001C 1.2207e-05 0.700006 0.699988 0 1.59999 0L 5.3 0C 6.2 0 6.89998 0.700006 6.89998 1.60001Z"/>
<path id="path9_fill" d="M 7.89999 9.69999L 4.5 9.69999L 0 6.10352e-06L 3.5 6.10352e-06L 7.89999 9.69999Z"/>
<path id="path10_fill" d="M 7.90001 9.69999L 4.40001 9.69999L -1.2207e-05 6.10352e-06L 3.40001 6.10352e-06L 7.90001 9.69999Z"/>
<path id="path11_fill" d="M 29.9 2.79999L 1.4 2.79999C 0.6 2.79999 6.10352e-06 2.19999 6.10352e-06 1.39999C 6.10352e-06 0.599994 0.6 -5.68434e-14 1.4 -5.68434e-14L 29.9 -5.68434e-14C 30.7 -5.68434e-14 31.3 0.599994 31.3 1.39999C 31.3 2.09999 30.7 2.79999 29.9 2.79999Z"/>
<path id="path12_fill" d="M 210.2 12.7C 192.1 12.7 2.4 12.7 2.4 12.7L 6.10352e-06 -6.10352e-06L 232.2 0.399988C 232.2 0.499988 228.3 12.7 210.2 12.7Z"/>
<path id="path13_fill" d="M 208 13L 0.199988 13L 6.10352e-06 11.7L 208 11.7C 225.2 11.7 226.6 0.5 226.6 0L 227.9 0.100006C 227.9 0.300006 226.4 13 208 13Z"/>
<path id="path14_fill" fill-rule="evenodd" d="M -1.2207e-05 11.8L 1.90001 14.7L 1.90001 23.6L 4.40001 23.6L 6.30001 15L 12.3 15L 12.3 8.6L 6.30001 8.6L 4.40001 -6.10352e-06L 1.90001 -6.10352e-06L 1.90001 8.89999L -1.2207e-05 11.8Z"/>
<path id="path15_fill" d="M 4.2 6.10352e-06L -1.2207e-05 6.10352e-06L -1.2207e-05 21.1L 4.2 21.1L 4.2 6.10352e-06Z"/>
<path id="path16_fill" d="M 415.9 -6.10352e-06L -6.10352e-06 -6.10352e-06L -6.10352e-06 7.80001L 415.9 7.80001L 415.9 -6.10352e-06Z"/>
<path id="path17_fill" d="M 46.2115 23.8115C 46.6115 11.0115 36.5115 0.411484 23.8115 0.0114838C 11.0115 -0.388516 0.411472 9.71148 0.0114716 22.4115C -0.388528 35.2115 9.7115 45.8115 22.4115 46.2115C 35.2115 46.6115 45.8115 36.5115 46.2115 23.8115Z"/>
<path id="path18_fill" d="M 17.2 34.4C 26.6993 34.4 34.4 26.6993 34.4 17.2C 34.4 7.70071 26.6993 -6.10352e-06 17.2 -6.10352e-06C 7.7007 -6.10352e-06 1.2207e-05 7.70071 1.2207e-05 17.2C 1.2207e-05 26.6993 7.7007 34.4 17.2 34.4Z"/>
<path id="path19_fill" d="M 14.5 29C 22.5081 29 29 22.5081 29 14.5C 29 6.49188 22.5081 6.10352e-06 14.5 6.10352e-06C 6.49187 6.10352e-06 -6.10352e-06 6.49188 -6.10352e-06 14.5C -6.10352e-06 22.5081 6.49187 29 14.5 29Z"/>
<path id="path20_fill" d="M 13.1 26.2C 20.3349 26.2 26.2 20.3349 26.2 13.1C 26.2 5.86508 20.3349 0 13.1 0C 5.86506 0 -1.2207e-05 5.86508 -1.2207e-05 13.1C -1.2207e-05 20.3349 5.86506 26.2 13.1 26.2Z"/>
<path id="path21_fill" d="M 14.6024 7.50234C 14.7024 3.50234 11.6024 0.10234 7.50236 0.00234C 3.50236 -0.09766 0.102358 3.00235 0.00235831 7.10235C -0.0976417 11.1023 3.00236 14.5023 7.10236 14.6023C 11.1024 14.7023 14.4024 11.5023 14.6024 7.50234Z"/>
<path id="path22_fill" d="M 46.2115 23.8115C 46.6115 11.0115 36.5115 0.411484 23.8115 0.0114838C 11.0115 -0.388516 0.41149 9.71148 0.0114899 22.4115C -0.38851 35.2115 9.71148 45.8115 22.4115 46.2115C 35.1115 46.6115 45.8115 36.5115 46.2115 23.8115Z"/>
<path id="path23_fill" d="M 17.2 34.4C 26.6993 34.4 34.4 26.6993 34.4 17.2C 34.4 7.70071 26.6993 -6.10352e-06 17.2 -6.10352e-06C 7.70071 -6.10352e-06 0 7.70071 0 17.2C 0 26.6993 7.70071 34.4 17.2 34.4Z"/>
<path id="path24_fill" d="M 14.5 29C 22.5081 29 29 22.5081 29 14.5C 29 6.49188 22.5081 6.10352e-06 14.5 6.10352e-06C 6.49188 6.10352e-06 1.2207e-05 6.49188 1.2207e-05 14.5C 1.2207e-05 22.5081 6.49188 29 14.5 29Z"/>
<path id="path25_fill" d="M 13.1 26.2C 20.3349 26.2 26.2 20.3349 26.2 13.1C 26.2 5.86508 20.3349 0 13.1 0C 5.86508 0 6.10352e-06 5.86508 6.10352e-06 13.1C 6.10352e-06 20.3349 5.86508 26.2 13.1 26.2Z"/>
<path id="path26_fill" d="M 14.6023 7.50234C 14.7023 3.50234 11.6023 0.10234 7.50234 0.00234C 3.50234 -0.09766 0.10234 3.00235 0.00234 7.10235C -0.09766 11.1023 3.00235 14.5023 7.10235 14.6023C 11.2023 14.7023 14.5023 11.5023 14.6023 7.50234Z"/>
<path id="path27_fill" d="M 77.2 6.10352e-06C 66.2 6.10352e-06 57.7 5.5 52.8 13.4C 47.9 5.5 39.4 6.10352e-06 28.4 6.10352e-06C 13.2 6.10352e-06 2.80001 10.5 1.2207e-05 23.3C 1.2207e-05 23.3 4.60001 23.3 6.40001 23.3C 9.80001 23.3 10.5 21.7 11.8 19.6C 13.1 17.5 17.8 8.9 28.4 8.9C 39 8.9 43.7 17.6 45 19.6C 46.1 21.3 46.7 22.7 48.8 23.1C 48.8 23.2 50.1 23.3 50.4 23.3C 51.9 23.3 54.1 23.3 55.2 23.3C 56.1 23.3 56.8 23.2 56.8 23.1C 58.9 22.6 59.5 21.3 60.6 19.6C 61.9 17.5 66.6 8.9 77.2 8.9C 87.8 8.9 92.5 17.6 93.8 19.6C 95.1 21.7 95.7 23.3 99.2 23.3C 101 23.3 105.6 23.3 105.6 23.3C 102.8 10.6 92.3 6.10352e-06 77.2 6.10352e-06Z"/>
<path id="path28_fill" d="M 5.00001 -1.2207e-05L 6.10352e-06 -1.2207e-05L 6.10352e-06 13.9L 5.00001 13.9L 5.00001 -1.2207e-05Z"/>
<path id="path29_fill" d="M 13.6 6.80001C 13.6 10.5 10.6 13.6 6.80002 13.6C 3.10002 13.6 -2.44141e-05 10.6 -2.44141e-05 6.80001C -2.44141e-05 3.10001 3.00002 -6.10352e-06 6.80002 -6.10352e-06C 10.6 -6.10352e-06 13.6 3.10001 13.6 6.80001Z"/>
<path id="path30_fill" d="M 6.2 3.10001C 6.2 4.80001 4.80002 6.19999 3.10002 6.19999C 1.40002 6.19999 -1.2207e-05 4.80001 -1.2207e-05 3.10001C -1.2207e-05 1.40001 1.40002 6.10352e-06 3.10002 6.10352e-06C 4.80002 6.10352e-06 6.2 1.40001 6.2 3.10001Z"/>
<path id="path31_fill" d="M 20.4 5.40289C 20.4 8.40289 20.4 10.9029 20.4 10.9029L 2.44141e-05 10.9029L 2.44141e-05 0.00289362L 14.9 0.00289362C 17.9 -0.0971064 20.4 2.40289 20.4 5.40289Z"/>
<path id="path32_fill" d="M 8.00002 16C 12.4183 16 16 12.4183 16 8.00001C 16 3.58173 12.4183 6.10352e-06 8.00002 6.10352e-06C 3.58175 6.10352e-06 2.44141e-05 3.58173 2.44141e-05 8.00001C 2.44141e-05 12.4183 3.58175 16 8.00002 16Z"/>
<path id="path33_fill" d="M 2.10002 15.775C 1.50002 15.775 1.00002 15.575 0.600024 15.175C -0.199976 14.275 -0.199976 12.975 0.600024 12.075L 12 0.675012C 12.9 -0.224988 14.2 -0.224988 15.1 0.675012C 15.9 1.57501 15.9 2.87499 15.1 3.77499L 3.7 15.175C 3.2 15.575 2.60002 15.775 2.10002 15.775Z"/>
<path id="path34_fill" d="M 1.40001 2.80001C 2.17321 2.80001 2.79998 2.17321 2.79998 1.40001C 2.79998 0.626814 2.17321 -1.2207e-05 1.40001 -1.2207e-05C 0.626814 -1.2207e-05 -1.2207e-05 0.626814 -1.2207e-05 1.40001C -1.2207e-05 2.17321 0.626814 2.80001 1.40001 2.80001Z"/>
<path id="path35_fill" d="M 1.40002 2.8C 2.17322 2.8 2.79999 2.1732 2.79999 1.40001C 2.79999 0.626807 2.17322 1.2207e-05 1.40002 1.2207e-05C 0.626826 1.2207e-05 0 0.626807 0 1.40001C 0 2.1732 0.626826 2.8 1.40002 2.8Z"/>
<path id="path36_fill" d="M 4.69475 5.80715C 4.69475 6.7909 4.52676 7.5219 4.19077 8.00015C 3.85478 8.47841 3.32961 8.71753 2.61526 8.71753C 1.90999 8.71753 1.38784 8.48446 1.04883 8.01831C 0.709813 7.54914 0.534251 6.84992 0.522144 5.92066L 0.522144 4.79918C 0.522144 3.82754 0.690138 3.10562 1.02613 2.63342C 1.36211 2.16122 1.8888 1.92512 2.60618 1.92512C 3.31751 1.92512 3.84116 2.15365 4.17715 2.61072C 4.51314 3.06476 4.68567 3.767 4.69475 4.71746L 4.69475 5.80715ZM 3.85478 4.65843C 3.85478 3.94711 3.7549 3.4295 3.55512 3.10562C 3.35534 2.77871 3.03903 2.61526 2.60618 2.61526C 2.17636 2.61526 1.86307 2.7772 1.66632 3.10108C 1.46957 3.42496 1.36817 3.92289 1.36211 4.59487L 1.36211 5.93882C 1.36211 6.65317 1.46503 7.18137 1.67086 7.52341C 1.87972 7.86243 2.19452 8.03193 2.61526 8.03193C 3.02995 8.03193 3.33718 7.87151 3.53696 7.55065C 3.73976 7.2298 3.8457 6.7243 3.85478 6.03417L 3.85478 4.65843ZM 9.91619 5.80715C 9.91619 6.7909 9.7482 7.5219 9.41221 8.00015C 9.07622 8.47841 8.55105 8.71753 7.8367 8.71753C 7.13143 8.71753 6.60928 8.48446 6.27027 8.01831C 5.93125 7.54914 5.75569 6.84992 5.74358 5.92066L 5.74358 4.79918C 5.74358 3.82754 5.91158 3.10562 6.24756 2.63342C 6.58355 2.16122 7.11024 1.92512 7.82762 1.92512C 8.53894 1.92512 9.0626 2.15365 9.39859 2.61072C 9.73458 3.06476 9.90711 3.767 9.91619 4.71746L 9.91619 5.80715ZM 9.07622 4.65843C 9.07622 3.94711 8.97633 3.4295 8.77656 3.10562C 8.57678 2.77871 8.26047 2.61526 7.82762 2.61526C 7.39779 2.61526 7.08451 2.7772 6.88776 3.10108C 6.69101 3.42496 6.58961 3.92289 6.58355 4.59487L 6.58355 5.93882C 6.58355 6.65317 6.68647 7.18137 6.8923 7.52341C 7.10116 7.86243 7.41596 8.03193 7.8367 8.03193C 8.25139 8.03193 8.55862 7.87151 8.7584 7.55065C 8.9612 7.2298 9.06714 6.7243 9.07622 6.03417L 9.07622 4.65843ZM 15.3238 8.62672L 10.9923 8.62672L 10.9923 8.02285L 13.2806 5.48024C 13.6196 5.09582 13.8527 4.78405 13.9798 4.54492C 14.11 4.30277 14.1751 4.05305 14.1751 3.79576C 14.1751 3.45069 14.0706 3.16767 13.8618 2.94671C 13.6529 2.72574 13.3744 2.61526 13.0264 2.61526C 12.6086 2.61526 12.2832 2.73482 12.0502 2.97395C 11.8201 3.21005 11.7051 3.53998 11.7051 3.96375L 10.8651 3.96375C 10.8651 3.35534 11.0604 2.86347 11.4508 2.48813C 11.8443 2.11279 12.3695 1.92512 13.0264 1.92512C 13.6408 1.92512 14.1266 2.08706 14.4838 2.41094C 14.841 2.7318 15.0196 3.16011 15.0196 3.69587C 15.0196 4.34666 14.6049 5.12155 13.7755 6.02055L 12.0048 7.94113L 15.3238 7.94113L 15.3238 8.62672ZM 17.4351 4.91269L 18.0662 4.91269C 18.4627 4.90664 18.7745 4.80221 19.0015 4.59941C 19.2285 4.3966 19.342 4.12267 19.342 3.7776C 19.342 3.00271 18.9561 2.61526 18.1842 2.61526C 17.821 2.61526 17.5304 2.71969 17.3125 2.92855C 17.0976 3.13438 16.9901 3.40831 16.9901 3.75036L 16.1501 3.75036C 16.1501 3.2267 16.3408 2.79233 16.7222 2.44727C 17.1066 2.09917 17.594 1.92512 18.1842 1.92512C 18.8078 1.92512 19.2966 2.09009 19.6508 2.42002C 20.0049 2.74996 20.182 3.20854 20.182 3.79576C 20.182 4.08332 20.0882 4.36179 19.9005 4.63119C 19.7158 4.90058 19.4631 5.10188 19.1422 5.23506C 19.5055 5.35008 19.7855 5.54078 19.9822 5.80715C 20.182 6.07352 20.2819 6.39891 20.2819 6.78333C 20.2819 7.37661 20.0882 7.84729 19.7007 8.19539C 19.3133 8.54348 18.8093 8.71753 18.1888 8.71753C 17.5682 8.71753 17.0628 8.54954 16.6723 8.21355C 16.2848 7.87756 16.0911 7.43412 16.0911 6.88322L 16.9356 6.88322C 16.9356 7.23131 17.0491 7.50979 17.2761 7.71865C 17.5032 7.92751 17.8074 8.03193 18.1888 8.03193C 18.5944 8.03193 18.9046 7.92599 19.1195 7.71411C 19.3345 7.50222 19.4419 7.19802 19.4419 6.80149C 19.4419 6.41707 19.3239 6.12195 19.0878 5.91612C 18.8517 5.71029 18.5111 5.60434 18.0662 5.59829L 17.4351 5.59829L 17.4351 4.91269ZM 24.9812 6.40648L 25.8983 6.40648L 25.8983 7.09208L 24.9812 7.09208L 24.9812 8.62672L 24.1367 8.62672L 24.1367 7.09208L 21.1264 7.09208L 21.1264 6.59717L 24.0867 2.01593L 24.9812 2.01593L 24.9812 6.40648ZM 22.0799 6.40648L 24.1367 6.40648L 24.1367 3.16465L 24.0368 3.34626L 22.0799 6.40648ZM 28.4909 6.1613L 26.2752 6.1613L 26.2752 5.4757L 28.4909 5.4757L 28.4909 6.1613ZM 31.987 8.62672L 31.1425 8.62672L 31.1425 3.02843L 29.4489 3.65047L 29.4489 2.88768L 31.8553 1.98415L 31.987 1.98415L 31.987 8.62672ZM 37.667 5.72088C 37.4914 5.92974 37.2811 6.09773 37.0359 6.22486C 36.7937 6.35199 36.5274 6.41556 36.2368 6.41556C 35.8554 6.41556 35.5224 6.32172 35.2379 6.13406C 34.9564 5.94639 34.7385 5.68304 34.5841 5.34403C 34.4297 5.00199 34.3525 4.62514 34.3525 4.21347C 34.3525 3.77154 34.4358 3.3735 34.6022 3.01935C 34.7717 2.6652 35.0109 2.39429 35.3196 2.20663C 35.6284 2.01896 35.9886 1.92512 36.4002 1.92512C 37.054 1.92512 37.5686 2.1703 37.944 2.66066C 38.3223 3.148 38.5115 3.81392 38.5115 4.65843L 38.5115 4.90361C 38.5115 6.19005 38.2572 7.12991 37.7487 7.72319C 37.2402 8.31344 36.4729 8.61613 35.4468 8.63126L 35.2833 8.63126L 35.2833 7.92297L 35.4604 7.92297C 36.1535 7.91086 36.6863 7.73076 37.0586 7.38266C 37.4309 7.03154 37.6337 6.47761 37.667 5.72088ZM 36.373 5.72088C 36.6545 5.72088 36.9133 5.63461 37.1494 5.46208C 37.3885 5.28954 37.5626 5.07615 37.6715 4.82188L 37.6715 4.4859C 37.6715 3.935 37.552 3.48701 37.3128 3.14194C 37.0737 2.79688 36.771 2.62434 36.4048 2.62434C 36.0355 2.62434 35.7389 2.76661 35.5149 3.05114C 35.2909 3.33264 35.1789 3.70495 35.1789 4.16807C 35.1789 4.61908 35.2863 4.99139 35.5012 5.285C 35.7192 5.57559 36.0098 5.72088 36.373 5.72088ZM 44.0008 8.62672L 39.6693 8.62672L 39.6693 8.02285L 41.9577 5.48024C 42.2967 5.09582 42.5297 4.78405 42.6569 4.54492C 42.787 4.30277 42.8521 4.05305 42.8521 3.79576C 42.8521 3.45069 42.7477 3.16767 42.5388 2.94671C 42.33 2.72574 42.0515 2.61526 41.7034 2.61526C 41.2857 2.61526 40.9603 2.73482 40.7272 2.97395C 40.4972 3.21005 40.3821 3.53998 40.3821 3.96375L 39.5422 3.96375C 39.5422 3.35534 39.7374 2.86347 40.1279 2.48813C 40.5214 2.11279 41.0466 1.92512 41.7034 1.92512C 42.3179 1.92512 42.8037 2.08706 43.1609 2.41094C 43.518 2.7318 43.6966 3.16011 43.6966 3.69587C 43.6966 4.34666 43.2819 5.12155 42.4526 6.02055L 40.6818 7.94113L 44.0008 7.94113L 44.0008 8.62672Z"/>
<path id="path37_fill" d="M 12.1 16.5L 67.5 3.05176e-06L 108 38.2L 26.3 46L 24.1 50L -6.10352e-06 50L 12.1 16.5Z"/>
<path id="path38_fill" d="M 11.4 -1.2207e-05C 17.3 -1.2207e-05 281.4 -1.2207e-05 287.7 -1.2207e-05C 294.1 -1.2207e-05 294.7 3.99999 294.7 3.99999L -6.10352e-06 3.99999C -6.10352e-06 3.99999 0.299988 -1.2207e-05 11.4 -1.2207e-05Z"/>
<path id="path39_fill" d="M 1.2207e-05 -1.2207e-05C 1.2207e-05 -1.2207e-05 54.4 -1.2207e-05 60.8 -1.2207e-05C 67.2 -1.2207e-05 67.8 3.99999 67.8 3.99999L 1.09999 3.99999L 1.2207e-05 -1.2207e-05Z"/>
<path id="path40_fill" d="M 44.9634 43.7634C 44.6634 43.7634 44.2634 43.6633 43.9634 43.3633L 0.463378 2.46335C -0.136622 1.96335 -0.136659 1.06335 0.363341 0.463347C 0.863341 -0.136653 1.76334 -0.136643 2.36334 0.363357L 45.8633 41.2634C 46.4633 41.7634 46.4634 42.6634 45.9634 43.2634C 45.7634 43.5634 45.3634 43.7634 44.9634 43.7634Z"/>
<path id="path41_fill" d="M 1.40078 30.4008C 1.20078 30.4008 1.10078 30.4008 0.900778 30.3008C 0.200778 30.0008 -0.19921 29.2008 0.10079 28.5008L 10.3008 0.90079C 10.6008 0.20079 11.4008 -0.199228 12.1008 0.100772C 12.8008 0.400772 13.2008 1.20079 12.9008 1.90079L 2.70077 29.5008C 2.50077 30.1008 1.90078 30.4008 1.40078 30.4008Z"/>
<path id="path42_fill" d="M 184.3 21.9L 135.3 0.200006C 135.1 0.100006 134.9 -6.10352e-06 134.7 -6.10352e-06L 6.20001 -6.10352e-06C 5.40001 -6.10352e-06 4.79999 0.599988 4.79999 1.39999C 4.79999 2.19999 5.40001 2.80001 6.20001 2.80001L 13.7 2.80001L 0 17.9L 4.40002 17.9L 18.1 2.80001L 127.1 2.80001L 112.9 18.4L 117.3 18.4L 131.5 2.80001L 134.3 2.80001L 149.9 9.70001L 141.7 18.9L 146.3 18.8L 153.1 11.2L 177.4 22L 184.3 22L 184.3 21.9Z"/>
</defs>
</svg>
