<svg width="751" height="201" viewBox="0 0 751 201" version="1.1" xmlns="http://www.w3.org/2000/svg" xmlns:xlink="http://www.w3.org/1999/xlink" xmlns:figma="http://www.figma.com/figma/ns">
<title>slide-1.2</title>
<desc>Created using Figma</desc>
<g id="Canvas" transform="translate(2153 610)" figma:type="canvas">
<mask id="mask0_alpha" mask-type="alpha">
<path d="M -2152.8 -609.011L -1402.8 -609.011L -1402.8 -409.011L -2152.8 -409.011L -2152.8 -609.011Z" fill="#FFFFFF"/>
</mask>
<g id="slide-1.2" style="mix-blend-mode:normal;" mask="url(#mask0_alpha)" figma:type="frame">
<g id="Group" style="mix-blend-mode:normal;" figma:type="frame">
<g id="Group" style="mix-blend-mode:normal;" figma:type="frame">
<g id="Vector" style="mix-blend-mode:normal;" figma:type="vector">
<use xlink:href="#path0_fill" transform="translate(-1724.51 -512.781)" fill="#F3E7C1" style="mix-blend-mode:normal;"/>
</g>
<g id="Vector" style="mix-blend-mode:normal;" figma:type="vector">
<use xlink:href="#path1_fill" transform="translate(-1724.59 -454.352)" fill="#C2C2C5" style="mix-blend-mode:normal;"/>
</g>
<g id="Vector" style="mix-blend-mode:normal;" figma:type="vector">
<use xlink:href="#path2_fill" transform="translate(-1491.37 -468.732)" fill="#47494F" style="mix-blend-mode:normal;"/>
</g>
<g id="Vector" style="mix-blend-mode:normal;" figma:type="vector">
<use xlink:href="#path3_fill" transform="translate(-1684.79 -467.136)" fill="#47494F" style="mix-blend-mode:normal;"/>
</g>
<g id="Vector" style="mix-blend-mode:normal;" figma:type="vector">
<use xlink:href="#path4_fill" transform="matrix(0.0302679 -0.999497 0.999503 0.0300884 -1488.01 -411.628)" fill="#6B6C72" style="mix-blend-mode:normal;"/>
</g>
<g id="Vector" style="mix-blend-mode:normal;" figma:type="vector">
<use xlink:href="#path5_fill" transform="matrix(0.0302075 -0.999497 0.999503 0.0300284 -1481.01 -418.201)" fill="#C2C2C5" style="mix-blend-mode:normal;"/>
</g>
<g id="Vector" style="mix-blend-mode:normal;" figma:type="vector">
<use xlink:href="#path6_fill" transform="matrix(0.0301941 -0.999497 0.999503 0.0300151 -1477.81 -421.198)" fill="#47494F" style="mix-blend-mode:normal;"/>
</g>
<g id="Vector" style="mix-blend-mode:normal;" figma:type="vector">
<use xlink:href="#path7_fill" transform="matrix(0.0302165 -0.999497 0.999503 0.0300373 -1476.06 -422.842)" fill="#C2C2C5" style="mix-blend-mode:normal;"/>
</g>
<g id="Vector" style="mix-blend-mode:normal;" figma:type="vector">
<use xlink:href="#path8_fill" transform="translate(-1468.95 -445.674)" fill="#939498" style="mix-blend-mode:normal;"/>
</g>
<g id="Vector" style="mix-blend-mode:normal;" figma:type="vector">
<use xlink:href="#path9_fill" transform="matrix(0.030195 -0.999497 0.999503 0.0300159 -1681.44 -410.598)" fill="#6B6C72" style="mix-blend-mode:normal;"/>
</g>
<g id="Vector" style="mix-blend-mode:normal;" figma:type="vector">
<use xlink:href="#path10_fill" transform="matrix(0.0301585 -0.999497 0.999503 0.0299797 -1674.43 -417.175)" fill="#C2C2C5" style="mix-blend-mode:normal;"/>
</g>
<g id="Vector" style="mix-blend-mode:normal;" figma:type="vector">
<use xlink:href="#path11_fill" transform="matrix(0.0302864 -0.999497 0.999503 0.0301068 -1674.52 -419.513)" fill="#C8CCC8" style="mix-blend-mode:normal;"/>
</g>
<g id="Vector" style="mix-blend-mode:normal;" figma:type="vector">
<use xlink:href="#path12_fill" transform="matrix(0.0301968 -0.999497 0.999503 0.0300178 -1671.24 -420.173)" fill="#47494F" style="mix-blend-mode:normal;"/>
</g>
<g id="Vector" style="mix-blend-mode:normal;" figma:type="vector">
<use xlink:href="#path13_fill" transform="matrix(0.0302174 -0.999497 0.999503 0.0300382 -1669.49 -421.82)" fill="#C2C2C5" style="mix-blend-mode:normal;"/>
</g>
<g id="Vector" style="mix-blend-mode:normal;" figma:type="vector">
<use xlink:href="#path14_fill" transform="matrix(0.0302087 -0.999497 0.999503 0.0300296 -1662.69 -428.202)" fill="#939498" style="mix-blend-mode:normal;"/>
</g>
<g id="Vector" style="mix-blend-mode:normal;" figma:type="vector">
<use xlink:href="#path15_fill" transform="translate(-1559.3 -507.928)" fill="#F26722" style="mix-blend-mode:normal;"/>
</g>
<g id="Vector" style="mix-blend-mode:normal;" figma:type="vector">
<use xlink:href="#path16_fill" transform="translate(-1611.64 -507.804)" fill="#F26722" style="mix-blend-mode:normal;"/>
</g>
<g id="Vector" style="mix-blend-mode:normal;" figma:type="vector">
<use xlink:href="#path17_fill" transform="translate(-1607.54 -492.962)" fill="#C2C2C5" style="mix-blend-mode:normal;"/>
</g>
<g id="Vector" style="mix-blend-mode:normal;" figma:type="vector">
<use xlink:href="#path18_fill" transform="translate(-1654.59 -503.438)" fill="#C2C2C5" style="mix-blend-mode:normal;"/>
</g>
<g id="Vector" style="mix-blend-mode:normal;" figma:type="vector">
<use xlink:href="#path19_fill" transform="translate(-1724.62 -457.145)" fill="#C2C2C5" style="mix-blend-mode:normal;"/>
</g>
<g id="Vector" style="mix-blend-mode:normal;" figma:type="vector">
<use xlink:href="#path20_fill" transform="translate(-1600.23 -474.313)" fill="#47494F" style="mix-blend-mode:normal;"/>
</g>
<g id="Vector" style="mix-blend-mode:normal;" figma:type="vector">
<use xlink:href="#path21_fill" transform="translate(-1738.27 -450.373)" fill="#47494F" style="mix-blend-mode:normal;"/>
</g>
<g id="Vector" style="mix-blend-mode:normal;" figma:type="vector">
<use xlink:href="#path22_fill" transform="translate(-1431.88 -439.586)" fill="#47494F" style="mix-blend-mode:normal;"/>
</g>
<g id="Group" style="mix-blend-mode:normal;" figma:type="frame">
<g id="Vector" style="mix-blend-mode:normal;" figma:type="vector">
<use xlink:href="#path23_fill" transform="translate(-1614.88 -484.682)" fill="#47494F" style="mix-blend-mode:normal;"/>
</g>
</g>
<g id="Vector" style="mix-blend-mode:normal;" figma:type="vector">
<use xlink:href="#path24_fill" transform="translate(-1419.01 -478.669)" fill="#C2C2C5" style="mix-blend-mode:normal;"/>
</g>
</g>
<g id="Vector" style="mix-blend-mode:normal;" figma:type="vector">
<use xlink:href="#path25_fill" transform="translate(-1828.78 -465.825)" fill="#47494F" style="mix-blend-mode:normal;"/>
</g>
<g id="Vector" style="mix-blend-mode:normal;" figma:type="vector">
<use xlink:href="#path26_fill" transform="translate(-1821.48 -458.342)" fill="#C2C2C5" style="mix-blend-mode:normal;"/>
</g>
<g id="Vector" style="mix-blend-mode:normal;" figma:type="vector">
<use xlink:href="#path27_fill" transform="translate(-1951.97 -466.623)" fill="#47494F" style="mix-blend-mode:normal;"/>
</g>
<g id="Vector" style="mix-blend-mode:normal;" figma:type="vector">
<use xlink:href="#path28_fill" transform="translate(-1906.04 -441.781)" fill="#010101" style="mix-blend-mode:normal;"/>
</g>
<g id="Vector" style="mix-blend-mode:normal;" figma:type="vector">
<use xlink:href="#path29_fill" transform="translate(-1944.46 -458.841)" fill="#C2C2C5" style="mix-blend-mode:normal;"/>
</g>
<g id="Vector" style="mix-blend-mode:normal;" figma:type="vector">
<use xlink:href="#path30_fill" transform="translate(-1926.25 -485.679)" fill="#6B6C72" style="mix-blend-mode:normal;"/>
</g>
<g id="Vector" style="mix-blend-mode:normal;" figma:type="vector">
<use xlink:href="#path31_fill" transform="translate(-1929.65 -490.868)" fill="#47494F" style="mix-blend-mode:normal;"/>
</g>
<g id="Vector" style="mix-blend-mode:normal;" figma:type="vector">
<use xlink:href="#path32_fill" transform="translate(-1957.77 -489.57)" fill="#47494F" style="mix-blend-mode:normal;"/>
</g>
<g id="Vector" style="mix-blend-mode:normal;" figma:type="vector">
<use xlink:href="#path33_fill" transform="translate(-1934.46 -448.565)" fill="#C2C2C5" style="mix-blend-mode:normal;"/>
</g>
<g id="Vector" style="mix-blend-mode:normal;" figma:type="vector">
<use xlink:href="#path34_fill" transform="translate(-1936.36 -471.712)" fill="#939498" style="mix-blend-mode:normal;"/>
</g>
<g id="Vector" style="mix-blend-mode:normal;" figma:type="vector">
<use xlink:href="#path35_fill" transform="translate(-1812.07 -448.765)" fill="#C2C2C5" style="mix-blend-mode:normal;"/>
</g>
<g id="Vector" style="mix-blend-mode:normal;" figma:type="vector">
<use xlink:href="#path36_fill" transform="translate(-1807.57 -443.976)" fill="#47494F" style="mix-blend-mode:normal;"/>
</g>
<g id="Vector" style="mix-blend-mode:normal;" figma:type="vector">
<use xlink:href="#path37_fill" transform="translate(-1814.98 -465.027)" fill="#939498" style="mix-blend-mode:normal;"/>
</g>
<g id="Vector" style="mix-blend-mode:normal;" figma:type="vector">
<use xlink:href="#path38_fill" transform="translate(-1804.27 -440.683)" fill="#C2C2C5" style="mix-blend-mode:normal;"/>
</g>
<g id="Vector" style="mix-blend-mode:normal;" figma:type="vector">
<use xlink:href="#path39_fill" transform="translate(-1802.97 -439.394)" fill="#47494F" style="mix-blend-mode:normal;"/>
</g>
<g id="Group" style="mix-blend-mode:normal;" figma:type="frame">
<g id="Group" style="mix-blend-mode:normal;" figma:type="frame">
<g id="Vector" style="mix-blend-mode:normal;" figma:type="vector">
<use xlink:href="#path40_fill" transform="translate(-1954.77 -498.051)" fill="#B3CDCA" style="mix-blend-mode:normal;"/>
</g>
</g>
</g>
<g id="Vector" style="mix-blend-mode:normal;" figma:type="vector">
<use xlink:href="#path41_fill" transform="translate(-1939.15 -499.248)" fill="#47494F" style="mix-blend-mode:normal;"/>
</g>
<g id="Vector" style="mix-blend-mode:normal;" figma:type="vector">
<use xlink:href="#path42_fill" transform="translate(-1914.04 -486.577)" fill="#47494F" style="mix-blend-mode:normal;"/>
</g>
<g id="Vector" style="mix-blend-mode:normal;" figma:type="vector">
<use xlink:href="#path43_fill" transform="translate(-1855.54 -472.953)" fill="#C2C2C5" style="mix-blend-mode:normal;"/>
</g>
<g id="Vector" style="mix-blend-mode:normal;" figma:type="vector">
<use xlink:href="#path44_fill" transform="translate(-1861.21 -438.189)" fill="#C2C2C5" style="mix-blend-mode:normal;"/>
</g>
<g id="Vector" style="mix-blend-mode:normal;" figma:type="vector">
<use xlink:href="#path45_fill" transform="translate(-1871.45 -478.715)" fill="#C2C2C5" style="mix-blend-mode:normal;"/>
</g>
<g id="Vector" style="mix-blend-mode:normal;" figma:type="vector">
<use xlink:href="#path46_fill" transform="translate(-1831.03 -511.121)" fill="#47494F" style="mix-blend-mode:normal;"/>
</g>
<g id="Vector" style="mix-blend-mode:normal;" figma:type="vector">
<use xlink:href="#path47_fill" transform="translate(-1829.63 -514.895)" fill="#C2C2C5" style="mix-blend-mode:normal;"/>
</g>
<g id="Vector" style="mix-blend-mode:normal;" figma:type="vector">
<use xlink:href="#path48_fill" transform="translate(-1823.28 -520)" fill="#47494F" style="mix-blend-mode:normal;"/>
</g>
<g id="Vector" style="mix-blend-mode:normal;" figma:type="vector">
<use xlink:href="#path49_fill" transform="translate(-1836.29 -499.946)" fill="#47494F" style="mix-blend-mode:normal;"/>
</g>
<g id="Group" style="mix-blend-mode:normal;" figma:type="frame">
<g id="Vector" style="mix-blend-mode:normal;" figma:type="vector">
<use xlink:href="#path50_fill" transform="translate(-2148.5 -468.718)" fill="#47494F" style="mix-blend-mode:normal;"/>
</g>
</g>
<g id="Group" style="mix-blend-mode:normal;" figma:type="frame">
<g id="Vector" style="mix-blend-mode:normal;" figma:type="vector">
<use xlink:href="#path51_fill" transform="translate(-2145.4 -465.825)" fill="#939498" style="mix-blend-mode:normal;"/>
</g>
</g>
<g id="Group" style="mix-blend-mode:normal;" figma:type="frame">
<g id="Vector" style="mix-blend-mode:normal;" figma:type="vector">
<use xlink:href="#path52_fill" transform="translate(-2056.14 -468.718)" fill="#47494F" style="mix-blend-mode:normal;"/>
</g>
</g>
<g id="Group" style="mix-blend-mode:normal;" figma:type="frame">
<g id="Vector" style="mix-blend-mode:normal;" figma:type="vector">
<use xlink:href="#path53_fill" transform="translate(-2053.13 -465.825)" fill="#939498" style="mix-blend-mode:normal;"/>
</g>
</g>
<g id="Vector" style="mix-blend-mode:normal;" figma:type="vector">
<use xlink:href="#path54_fill" transform="translate(-2151 -507.13)" fill="#B6BA48" style="mix-blend-mode:normal;"/>
</g>
<g id="Vector" style="mix-blend-mode:normal;" figma:type="vector">
<use xlink:href="#path55_fill" transform="translate(-2085.46 -449.962)" fill="#47494F" style="mix-blend-mode:normal;"/>
</g>
<g id="Group" style="mix-blend-mode:normal;" figma:type="frame">
<g id="Vector" style="mix-blend-mode:normal;" figma:type="vector">
<use xlink:href="#path56_fill" transform="translate(-2080.85 -451.059)" fill="#939498" style="mix-blend-mode:normal;"/>
</g>
</g>
<g id="Group" style="mix-blend-mode:normal;" figma:type="frame">
<g id="Vector" style="mix-blend-mode:normal;" figma:type="vector">
<use xlink:href="#path57_fill" transform="translate(-2089.66 -422.326)" fill="#939498" style="mix-blend-mode:normal;"/>
</g>
</g>
<g id="Group" style="mix-blend-mode:normal;" figma:type="frame">
<g id="Vector" style="mix-blend-mode:normal;" figma:type="vector">
<use xlink:href="#path58_fill" transform="translate(-2122.58 -444.075)" fill="#47494F" style="mix-blend-mode:normal;"/>
</g>
</g>
<g id="Group" style="mix-blend-mode:normal;" figma:type="frame">
<g id="Group" style="mix-blend-mode:normal;" figma:type="frame">
<g id="Vector" style="mix-blend-mode:normal;" figma:type="vector">
<use xlink:href="#path59_fill" transform="translate(-2063.74 -507.529)" fill="#939498" style="mix-blend-mode:normal;"/>
</g>
</g>
<g id="Group" style="mix-blend-mode:normal;" figma:type="frame">
<g id="Vector" style="mix-blend-mode:normal;" figma:type="vector">
<use xlink:href="#path60_fill" transform="translate(-2062.34 -504.236)" fill="#939498" style="mix-blend-mode:normal;"/>
</g>
<g id="Vector" style="mix-blend-mode:normal;" figma:type="vector">
<use xlink:href="#path61_fill" transform="translate(-2060.14 -504.236)" fill="#939498" style="mix-blend-mode:normal;"/>
</g>
<g id="Vector" style="mix-blend-mode:normal;" figma:type="vector">
<use xlink:href="#path62_fill" transform="translate(-2058.04 -504.236)" fill="#939498" style="mix-blend-mode:normal;"/>
</g>
<g id="Vector" style="mix-blend-mode:normal;" figma:type="vector">
<use xlink:href="#path60_fill" transform="translate(-2055.84 -504.236)" fill="#939498" style="mix-blend-mode:normal;"/>
</g>
<g id="Vector" style="mix-blend-mode:normal;" figma:type="vector">
<use xlink:href="#path63_fill" transform="translate(-2053.73 -504.236)" fill="#939498" style="mix-blend-mode:normal;"/>
</g>
<g id="Vector" style="mix-blend-mode:normal;" figma:type="vector">
<use xlink:href="#path61_fill" transform="translate(-2051.63 -504.236)" fill="#939498" style="mix-blend-mode:normal;"/>
</g>
</g>
</g>
<g id="Vector" style="mix-blend-mode:normal;" figma:type="vector">
<use xlink:href="#path64_fill" transform="translate(-2105.4 -502.573)" fill="#47494F" style="mix-blend-mode:normal;"/>
</g>
</g>
</g>
</g>
<defs>
<path id="path0_fill" d="M 316.809 83.1723C 316.709 80.6781 314.908 50.3481 314.908 50.3481C 314.908 50.3481 314.807 46.956 314.007 44.362C 311.805 37.8769 307.903 34.8838 298.397 34.0857L 219.043 28.7979L 212.739 28.3988C 208.236 25.4057 182.319 6.64903 174.714 1.1617C 173.713 0.463311 173.513 0.363547 172.412 0.263778C 129.483 -1.23277 106.668 3.85547 86.3546 10.0412C 55.4339 19.3198 1.19759 46.8562 1.19759 58.3297C 1.19759 66.6106 -0.40346 75.3903 0.0968752 76.4878C 0.497143 77.5852 8.40239 82.1746 18.309 83.1723C 28.2156 84.17 45.6273 83.5714 46.3278 83.9705C 47.0282 84.3696 230.851 86.4647 230.851 86.4647C 230.851 86.4647 286.689 81.1769 297.496 84.6689C 308.203 88.1608 316.909 85.6666 316.809 83.1723Z"/>
<path id="path1_fill" d="M 315.487 -1.21789e-05C 315.987 9.17879 316.788 23.0468 316.888 24.7429C 316.988 27.2371 308.282 29.7314 297.475 26.3392C 286.768 22.947 230.83 28.135 230.83 28.135C 230.83 28.135 47.1075 26.0399 46.307 25.6408C 45.6065 25.2417 28.1948 25.8403 18.2882 24.8426C 8.38159 23.8449 0.476284 19.2555 0.0760162 18.1581C -0.324252 17.0606 0.976656 8.38064 1.17679 0.0997635L 315.487 0.0997635L 315.487 -1.21789e-05Z"/>
<path id="path2_fill" d="M 1.8119 42.9145C 0.511032 39.3228 -0.0892967 33.7358 0.0107703 29.745C 0.511105 12.7841 14.7206 -0.485238 31.732 0.0136101C 48.7433 0.512458 62.0523 14.6798 61.552 31.6406C 61.4519 35.6314 61.4518 37.1279 59.9508 40.6199L 1.8119 42.9145Z"/>
<path id="path3_fill" d="M 0.500335 38.4248C 0.100067 35.8308 0 32.2391 0 29.9444C 0.500335 12.8838 14.7099 -0.48533 31.7212 0.0135179C 48.7326 0.512366 62.0415 14.7794 61.5412 31.84C 61.4411 35.332 61.4411 36.8285 60.5405 39.4225L 0.500335 38.4248Z"/>
<path id="path4_fill" d="M 26.5388 53.2355C 41.1957 53.2355 53.0775 41.3183 53.0775 26.6177C 53.0775 11.9172 41.1957 1.22152e-05 26.5388 1.22152e-05C 11.8818 1.22152e-05 0 11.9172 0 26.6177C 0 41.3183 11.8818 53.2355 26.5388 53.2355Z"/>
<path id="path5_fill" d="M 19.7544 39.6264C 30.6645 39.6264 39.5089 30.7557 39.5089 19.8132C 39.5089 8.87066 30.6645 0 19.7544 0C 8.84434 0 4.87158e-05 8.87066 4.87158e-05 19.8132C 4.87158e-05 30.7557 8.84434 39.6264 19.7544 39.6264Z"/>
<path id="path6_fill" d="M 16.6615 33.4223C 25.8635 33.4223 33.3232 25.9404 33.3232 16.7111C 33.3232 7.48182 25.8635 6.10759e-06 16.6615 6.10759e-06C 7.45961 6.10759e-06 2.43579e-05 7.48182 2.43579e-05 16.7111C 2.43579e-05 25.9404 7.45961 33.4223 16.6615 33.4223Z"/>
<path id="path7_fill" d="M 14.9655 30.02C 23.2307 30.02 29.9309 23.2998 29.9309 15.01C 29.9309 6.7202 23.2307 -1.22152e-05 14.9655 -1.22152e-05C 6.70025 -1.22152e-05 -2.43579e-05 6.7202 -2.43579e-05 15.01C -2.43579e-05 23.2998 6.70025 30.02 14.9655 30.02Z"/>
<path id="path8_fill" d="M 16.7132 8.58222C 16.8133 3.99282 13.2109 0.101799 8.60784 0.00202905C 4.00476 -0.0977406 0.102053 3.49397 0.00198624 8.08337C -0.0980807 12.6728 3.50443 16.5638 8.10751 16.6636C 12.7106 16.7633 16.6132 13.1716 16.7132 8.58222Z"/>
<path id="path9_fill" d="M 26.5388 53.2355C 41.1957 53.2355 53.0776 41.3183 53.0776 26.6177C 53.0776 11.9172 41.1957 1.22152e-05 26.5388 1.22152e-05C 11.8818 1.22152e-05 1.21789e-05 11.9172 1.21789e-05 26.6177C 1.21789e-05 41.3183 11.8818 53.2355 26.5388 53.2355Z"/>
<path id="path10_fill" d="M 19.7544 39.6264C 30.6645 39.6264 39.5088 30.7557 39.5088 19.8132C 39.5088 8.87066 30.6645 0 19.7544 0C 8.84435 0 0 8.87066 0 19.8132C 0 30.7557 8.84435 39.6264 19.7544 39.6264Z"/>
<path id="path11_fill" d="M 17.4597 35.0233C 27.1025 35.0233 34.9194 27.1831 34.9194 17.5117C 34.9194 7.84023 27.1025 -1.22152e-05 17.4597 -1.22152e-05C 7.81698 -1.22152e-05 -1.21789e-05 7.84023 -1.21789e-05 17.5117C -1.21789e-05 27.1831 7.81698 35.0233 17.4597 35.0233Z"/>
<path id="path12_fill" d="M 16.6616 33.4223C 25.8635 33.4223 33.3231 25.9404 33.3231 16.7111C 33.3231 7.48182 25.8635 6.10759e-06 16.6616 6.10759e-06C 7.45963 6.10759e-06 -2.43579e-05 7.48182 -2.43579e-05 16.7111C -2.43579e-05 25.9404 7.45963 33.4223 16.6616 33.4223Z"/>
<path id="path13_fill" d="M 14.9655 30.02C 23.2307 30.02 29.931 23.2998 29.931 15.01C 29.931 6.7202 23.2307 -1.22152e-05 14.9655 -1.22152e-05C 6.70026 -1.22152e-05 -1.21789e-05 6.7202 -1.21789e-05 15.01C -1.21789e-05 23.2998 6.70026 30.02 14.9655 30.02Z"/>
<path id="path14_fill" d="M 8.38066 16.8112C 13.0092 16.8112 16.7614 13.0479 16.7614 8.40559C 16.7614 3.7633 13.0092 -6.10759e-06 8.38066 -6.10759e-06C 3.75214 -6.10759e-06 2.43579e-05 3.7633 2.43579e-05 8.40559C 2.43579e-05 13.0479 3.75214 16.8112 8.38066 16.8112Z"/>
<path id="path15_fill" d="M 30.2202 25.7406L 11.3075 25.4413L 2.44304e-05 6.08945e-06L 5.00337 6.08945e-06C 5.70384 0.399085 8.40568 2.89331 11.908 6.28548C 14.81 9.1788 30.2202 25.7406 30.2202 25.7406Z"/>
<path id="path16_fill" d="M 58.4391 25.4172L 7.505 24.2199L -2.44304e-05 3.56761C 26.1175 -0.822255 48.6325 0.0756715 48.6325 0.0756715L 58.4391 25.4172Z"/>
<path id="path17_fill" d="M 50.2336 6.08945e-06L 54.3364 10.5756L 3.40225 9.37834L -4.88608e-05 6.08945e-06L 50.2336 6.08945e-06Z"/>
<path id="path18_fill" d="M 45.9564 19.8542L 5.02901 20.353C 5.02901 20.353 -3.57674 20.4528 1.72681 16.462C 14.2352 6.88411 32.1472 1.49655 39.7523 6.08945e-06L 45.9564 19.8542Z"/>
<path id="path19_fill" d="M 1.9091 0L 12.5162 0.299297L 17.0193 7.88179L 0.908435 7.38295C 0.908435 7.38295 -1.69331 1.49654 1.9091 0Z"/>
<path id="path20_fill" d="M 0 1.80346C 0 2.80115 0.800585 3.69907 1.80125 3.69907L 10.9073 3.99837C 11.908 3.99837 12.8086 3.20023 12.8086 2.20253C 12.8086 1.20483 12.008 0.306914 11.0074 0.306914L 1.9013 0.00758675C 0.80056 -0.0921829 0 0.805762 0 1.80346Z"/>
<path id="path21_fill" d="M 30.6663 1.509C 30.6663 2.5067 30.6663 12.1844 30.6663 12.1844C 30.6663 12.1844 30.8665 14.08 28.765 14.08C 27.9645 14.08 11.9538 14.08 8.5515 14.08C 7.0505 14.08 5.74964 13.6809 4.74897 12.0846C 2.94776 9.0915 1.84705 6.79682 0.646248 4.40235C -0.954824 1.20972 0.546157 0.012459 3.7483 0.012459C 10.2527 0.012459 27.6643 0.012459 28.765 0.012459C 29.8658 -0.0873106 30.6663 0.411537 30.6663 1.509Z"/>
<path id="path22_fill" d="M 2.75965 6.08945e-06C 6.66226 6.08945e-06 3.66028 2.69377 8.66362 2.69377C 10.0646 2.69377 23.2734 2.69377 24.7744 2.69377C 26.3755 2.69377 27.8764 3.49194 27.8764 5.48733C 27.8764 5.88641 27.8764 10.6754 27.8764 10.9747C 27.8764 13.3691 26.4756 13.7682 23.5736 13.7682C 19.671 13.7682 5.66164 13.7682 4.06057 13.7682C 1.45883 13.7682 0.558151 12.97 0.358017 11.8726C -0.342452 8.67996 -0.242361 6.08945e-06 2.75965 6.08945e-06Z"/>
<path id="path23_fill" d="M 109.914 55.4719L 110.314 55.4719L 110.314 55.0728C 110.314 54.8733 111.815 39.1097 111.815 23.6454C 111.815 8.08134 107.112 0.997702 106.912 0.698393L 106.011 0.598618C 106.111 0.698387 110.914 8.38065 110.914 23.6454C 110.914 37.7129 109.613 52.0797 109.413 54.6738L 20.2536 53.7758C 20.1536 53.7758 17.652 53.7758 9.44647 35.0191C 0.340379 14.3668 0.740549 11.7728 0.840616 11.4735C 1.44102 11.1742 8.34569 3.09287 10.6472 0.798169L 10.2469 -6.08945e-06C 6.64453 3.69147 0.940781 10.3761 0.440446 10.7751C -0.159956 11.0744 -1.66101 11.7728 8.64589 35.3184C 17.0515 54.2747 19.6532 54.574 20.2536 54.574L 109.914 55.4719Z"/>
<path id="path24_fill" d="M 0.398732 3.26634C 0.398732 3.26634 6.30268 10.4497 7.90376 15.8373C 9.50483 21.2248 11.0059 24.0184 11.8064 17.1343C 12.6069 10.2502 9.00449 4.9624 5.90242 1.86954C 2.80034 -1.12354 -1.30241 -0.425132 0.398732 3.26634Z"/>
<path id="path25_fill" d="M 27.9187 -1.21789e-05C 12.5084 -1.21789e-05 -2.44304e-05 12.1719 -2.44304e-05 27.6362C -2.44304e-05 43.1005 12.5084 55.2724 27.9187 55.2724C 43.329 55.2724 55.4371 43.1005 55.4371 27.6362C 55.4371 12.1719 43.329 -1.21789e-05 27.9187 -1.21789e-05ZM 37.6252 43.3998C 28.9194 48.8871 17.5117 46.4926 12.008 37.9124C 6.50433 29.3323 9.10612 17.8588 17.8119 12.3714C 26.5178 6.88412 37.9254 9.37833 43.4291 17.9585C 48.9328 26.4389 46.331 37.9124 37.6252 43.3998Z"/>
<path id="path26_fill" d="M 20.3136 -1.21789e-05C 9.10611 -1.21789e-05 2.44304e-05 9.07904 2.44304e-05 20.2532C 2.44304e-05 31.4274 9.10611 40.5065 20.3136 40.5065C 31.5211 40.5065 40.6272 31.4274 40.6272 20.2532C 40.6272 9.07904 31.5211 -1.21789e-05 20.3136 -1.21789e-05ZM 32.6218 7.08364C 32.0214 8.58018 29.6198 11.5733 20.1135 13.0698C 20.1135 13.0698 10.1068 8.08133 10.407 7.08364C 10.407 7.08364 10.2068 6.08594 10.6071 5.08824C 13.409 3.29239 16.7112 2.29471 20.3136 2.29471C 25.0168 2.19494 29.4197 4.09055 32.6218 7.08364ZM 2.20145 20.2532C 2.20145 19.1558 2.30156 18.1581 2.5017 17.1604C 3.50237 16.462 6.10406 16.3622 12.7085 23.9447C 12.7085 23.9447 14.3096 35.0191 13.3089 35.3185C 13.3089 35.3185 12.7085 35.9171 11.8079 36.2164C 6.1041 33.2233 2.20145 27.2371 2.20145 20.2532ZM 20.3136 38.3115C 19.0127 38.3115 17.7118 38.2117 16.411 37.9124C 15.6104 36.815 14.7098 33.8219 14.6098 25.7406L 12.8086 20.6523C 12.8086 20.6523 5.30356 17.2601 3.80256 12.97C 4.60309 11.1742 5.70384 9.57788 7.00471 8.18111C 8.50572 8.28088 11.5077 9.47811 17.6118 13.6684L 22.8153 15.165C 22.8153 15.165 31.0207 10.2763 36.2242 11.8726C 36.8246 13.0698 37.325 14.267 37.7252 15.5641C 35.5238 19.5548 27.8186 21.8496 27.8186 21.8496L 25.417 26.7383C 24.3163 34.4205 23.0154 37.4136 22.1148 38.4113C 21.5144 38.3115 20.914 38.3115 20.3136 38.3115ZM 26.5178 37.2141C 25.7172 36.815 25.317 36.2164 25.317 36.2164C 24.3163 35.8173 27.4183 25.0422 27.4183 25.0422C 34.5231 18.6569 37.325 18.7567 38.3257 19.4551C 38.3257 19.7544 38.3257 20.0537 38.3257 20.353C 38.3257 28.0353 33.4224 34.6201 26.5178 37.2141Z"/>
<path id="path27_fill" d="M 27.9187 0C 12.5084 0 0 12.571 0 28.0353C 0 43.4996 12.5084 56.0705 27.9187 56.0705C 43.329 56.0705 55.8374 43.4996 55.8374 28.0353C 55.8374 12.571 43.329 0 27.9187 0ZM 37.6252 43.7989C 28.9193 49.2862 17.5117 46.7919 12.008 38.2118C 6.50435 29.6316 9.10608 18.1581 17.8119 12.6708C 26.5177 7.18342 37.9254 9.67766 43.4291 18.1581C 48.9328 26.838 46.331 38.3115 37.6252 43.7989Z"/>
<path id="path28_fill" d="M 2.44304e-05 -6.08945e-06L 0.20011 0.598618C 0.100043 0.399078 2.44304e-05 0.199533 2.44304e-05 -6.08945e-06Z"/>
<path id="path29_fill" d="M 20.4137 -1.21789e-05C 14.7099 -1.21789e-05 8.60576 2.99308 5.50368 6.48501C 2.40161 9.97695 0 13.9678 0 20.353C 0 31.5272 9.10608 40.6062 20.3136 40.6062C 31.5211 40.6062 40.7273 31.5272 40.7273 20.353C 40.7273 9.07905 31.6212 -1.21789e-05 20.4137 -1.21789e-05ZM 11.1074 4.78895C 12.5083 5.2878 15.1101 7.28319 19.8132 13.3691L 24.4164 16.3622C 24.4164 16.3622 35.6238 13.6684 38.0255 18.7567L 35.3236 11.8726L 34.9234 12.0721C 34.9234 12.0721 36.5245 16.6615 22.415 13.7682C 22.415 13.7682 14.3096 5.8864 14.91 5.08824C 14.91 5.08824 15.01 3.891 15.8106 2.99308C 17.2115 2.594 18.8126 2.39448 20.3136 2.39448C 30.3203 2.39448 38.4257 10.4758 38.4257 20.4528C 38.4257 20.7521 38.4257 21.1511 38.4257 21.4505C 35.0235 24.4435 27.2182 24.3438 27.2182 24.3438L 23.4157 28.3346C 20.4137 34.6201 18.4123 37.3138 17.1114 38.3115C 15.01 37.9125 13.0087 37.2141 11.2075 36.1166C 10.9073 34.5203 11.1074 31.3277 13.3089 24.3438L 13.0087 18.6569C 13.0087 18.6569 7.40498 13.6684 5.90398 9.27858C 7.30491 7.48273 9.10607 5.98618 11.1074 4.78895ZM 4.10272 12.1719C 5.20346 11.7728 7.90532 12.4712 11.908 21.8496C 11.908 21.8496 10.1067 33.0237 9.10607 33.0237C 9.10607 33.0237 8.60575 33.323 7.80521 33.4228C 4.30287 30.1304 2.20149 25.4413 2.20149 20.353C 2.20149 17.3599 2.90192 14.6661 4.10272 12.1719ZM 20.914 38.4113C 20.5138 37.9124 20.4137 37.4136 20.4137 37.4136C 19.6132 36.7152 25.8173 27.2371 25.8173 27.2371C 34.0228 23.5456 36.8246 24.0445 37.8253 24.9424C 35.824 32.5249 29.1195 38.112 20.914 38.4113Z"/>
<path id="path30_fill" d="M 13.409 9.87718L 20.2136 21.8495L 5.00336 27.6362L 1.22152e-05 34.221L 1.20083 40.8058L 18.5124 43.4995L 30.8206 42.4021L 37.0248 42.4021L 42.4284 46.5924L 47.832 53.8756L 59.74 54.9731L 64.3431 51.4811L 59.74 39.6085C 59.74 39.6085 58.5392 29.6316 62.8421 28.0353C 67.0449 26.5387 77.4518 19.9539 77.4518 19.9539L 90.9609 16.8611L 102.168 28.4343L 102.168 23.0468L 105.971 13.0698L 114.877 4.5894L 103.269 4.5894L 79.3531 -6.08945e-06L 46.231 8.48041L 18.5124 3.09286L 13.409 9.87718Z"/>
<path id="path31_fill" d="M 18.7125 37.0148C 18.7125 37.0148 19.5131 32.0263 21.5144 25.7408L 20.0134 24.0447L 22.7152 23.1468L 38.4257 36.6157C 38.4257 36.6157 42.3283 39.7086 43.7293 36.4162L 45.1302 27.4369C 45.1302 27.4369 96.2644 5.18831 96.9649 0.898213C 97.6654 -3.39188 104.77 9.0793 104.77 9.0793C 104.77 9.0793 55.6373 28.9335 54.1363 31.3279L 51.0341 38.3118L 53.9361 46.2934L 52.0348 49.6855L 56.2376 56.3701L 56.2376 59.2634L 50.0335 60.2611L 48.7326 56.1706L 44.1296 47.1913L 43.2289 47.1913C 43.2289 47.1913 45.0302 42.3026 28.419 31.3279L 22.1148 37.813L 22.9154 43.3003C 22.9154 43.3003 22.415 46.1936 20.914 45.8943L 21.1142 46.892L 18.4123 46.1936L 14.2095 47.0915L 11.4076 44.6971L -1.22152e-05 44.6971L 4.503 42.7017L 4.70315 37.1146L 9.50635 33.5229C 9.50635 33.3233 17.4117 29.8314 18.7125 37.0148Z"/>
<path id="path32_fill" d="M 11.3076 0L 1.22152e-05 22.2486L 6.50437 22.1489C 6.50437 22.1489 15.6105 8.38066 29.7199 11.6731L 11.3076 0Z"/>
<path id="path33_fill" d="M 48.0322 6.08945e-06L 0 6.08596L 3.90264 13.7682C 3.90264 13.7682 8.80589 19.7544 16.0107 15.6638L 43.8293 9.67764L 52.235 13.4689L 53.736 15.7636L 57.4385 16.462L 65.1436 17.5595L 68.8461 13.1696L 58.6392 13.4689L 48.0322 6.08945e-06Z"/>
<path id="path34_fill" d="M 54.5442 39.1097C 49.2407 39.1097 32.8298 32.6247 32.8298 32.6247L 33.0298 30.2302L 15.318 24.1443L 23.1232 2.29471L 17.2193 -6.08945e-06L 9.41406 22.0491L 5.41138 20.6523C 5.11118 21.0514 4.81095 21.4505 4.51075 21.9493C 3.61015 21.65 2.40938 21.3507 1.60885 21.2509C 0.408042 21.1512 0.307987 22.1489 0.307987 22.1489C 0.20792 22.7475 0.207871 23.0468 0.007737 24.3438C -0.09233 25.1419 0.808322 25.3415 0.808322 25.3415C 1.30866 25.4412 2.20925 25.6408 3.10985 25.9401C 2.80965 27.3369 2.80966 28.4343 2.80966 28.4343L 29.2273 39.409L 30.8284 37.4136L 49.8411 42.7014C 53.7438 43.6991 54.5442 43.3998 54.5442 43.3998L 54.5442 39.1097Z"/>
<path id="path35_fill" d="M 11.0074 21.9493C 17.0866 21.9493 22.0147 17.0358 22.0147 10.9747C 22.0147 4.91352 17.0866 -6.08945e-06 11.0074 -6.08945e-06C 4.92815 -6.08945e-06 -1.22152e-05 4.91352 -1.22152e-05 10.9747C -1.22152e-05 17.0358 4.92815 21.9493 11.0074 21.9493Z"/>
<path id="path36_fill" d="M 6.50434 12.9701C 10.0966 12.9701 13.0087 10.0666 13.0087 6.48504C 13.0087 2.90346 10.0966 1.21789e-05 6.50434 1.21789e-05C 2.91209 1.21789e-05 -1.22152e-05 2.90346 -1.22152e-05 6.48504C -1.22152e-05 10.0666 2.91209 12.9701 6.50434 12.9701Z"/>
<path id="path37_fill" d="M 2.44304e-05 1.9954L 12.1081 27.5364L 15.5104 25.6408L 3.9026 6.08945e-06L 2.44304e-05 1.9954Z"/>
<path id="path38_fill" d="M -2.44304e-05 3.19264C -2.44304e-05 4.98849 1.40093 6.38525 3.20213 6.38525C 5.00334 6.38525 6.40429 4.98849 6.40429 3.19264C 6.40429 1.39679 5.00334 0 3.20213 0C 1.40093 0 -2.44304e-05 1.39679 -2.44304e-05 3.19264ZM 1.60108 3.19264C 1.60108 2.29471 2.30153 1.59632 3.20213 1.59632C 4.10273 1.59632 4.80324 2.29471 4.80324 3.19264C 4.80324 4.09057 4.10273 4.78893 3.20213 4.78893C 2.30153 4.68916 1.60108 3.9908 1.60108 3.19264Z"/>
<path id="path39_fill" d="M 2.44304e-05 1.90322C 2.44304e-05 3.00069 0.800524 3.79884 1.90126 3.79884C 3.002 3.79884 3.80256 2.90092 3.80256 1.90322C 3.80256 0.805755 2.90193 0.00757343 1.90126 0.00757343C 0.900591 -0.0921962 2.44304e-05 0.805755 2.44304e-05 1.90322ZM 1.50103 1.90322C 1.50103 1.80345 1.70116 1.60389 2.00136 1.60389C 2.30156 1.60389 2.5017 1.80345 2.5017 1.90322C 2.5017 2.00299 2.30156 2.20252 2.00136 2.20252C 1.70116 2.10275 1.50103 2.00299 1.50103 1.90322Z"/>
<path id="path40_fill" d="M 2.00135 15.4643C -0.100055 18.6569 2.10139 21.2509 2.10139 21.2509C 7.60508 21.2509 8.4056 17.8588 8.4056 17.8588C 5.30353 14.8657 2.00135 15.4643 2.00135 15.4643ZM 142.595 31.3277L 151.101 22.0491L 158.506 18.8565C 158.506 18.8565 150.501 12.7705 145.898 7.08365L 142.595 5.18803L 141.295 12.0721L 119.58 16.2624L 114.777 15.9631C 108.673 19.7544 88.3591 34.1212 85.3571 37.2141C 82.8555 39.7083 76.2511 45.3952 83.2558 56.2701C 83.2558 56.2701 91.7614 67.1449 81.0543 66.1472L 72.5486 64.6507L 72.7487 73.3307C 72.7487 73.3307 106.972 75.4258 123.883 73.1311C 123.883 73.1311 124.884 71.1357 123.383 68.0429C 123.383 68.0429 120.381 61.9569 124.884 52.4788L 124.884 52.5786L 129.787 49.6853C 129.787 49.6853 141.595 26.9378 152.302 44.3975L 154.303 43.8986L 160.107 37.6132C 160.107 37.6132 169.113 34.7198 169.714 34.5203C 169.513 34.5203 158.906 26.3392 142.595 31.3277ZM 101.668 18.8565C 101.668 18.8565 117.879 10.9746 117.879 10.2763C 117.879 10.2763 117.879 7.08363 111.775 4.78893C 111.775 4.78893 95.0636 -0.997708 83.1557 3.79123C 83.1557 3.79123 75.3505 7.18342 72.7487 13.1696C 72.7487 13.1696 76.7514 18.1581 70.0469 21.9493C 62.9421 20.2532 55.9374 19.3553 55.9374 19.3553C 34.3229 18.9562 39.5265 5.67125e-14 39.5265 5.67125e-14C 8.40564 5.67125e-14 1.22152e-05 2.29469 1.22152e-05 2.29469C 3.70249 5.98616 43.7293 32.6247 43.7293 32.6247C 66.4445 29.1327 69.0462 33.5226 69.0462 33.5226L 83.8561 27.2371L 101.668 18.8565Z"/>
<path id="path41_fill" d="M 0.692505 3.39218C 0.692505 3.39218 -1.30885 1.09745 1.49303 -1.21789e-05L 24.4084 -1.21789e-05C 24.4084 -1.21789e-05 27.8107 3.09285 26.1095 5.58709L 23.2076 6.08594L 0.692505 3.39218Z"/>
<path id="path42_fill" d="M 2.44304e-05 1.49654C 2.44304e-05 1.49654 1.21675e-05 0 3.80256 0C 3.80256 0 21.2142 4.38987 31.9214 1.6961C 31.9214 1.6961 37.7253 7.08365 29.3196 10.6754C 29.3196 10.6754 4.30291 10.2763 2.44304e-05 1.49654Z"/>
<path id="path43_fill" d="M 12.148 9.82176C 12.6483 9.12338 17.5515 3.23696 18.7523 1.74042C 18.9525 1.54088 18.7523 1.24157 18.7523 1.24157L 16.5509 0.0443542C 16.5509 0.0443542 16.2507 -0.0554154 15.9505 0.0443542C 14.2493 0.642972 6.04387 3.83557 1.14059 9.62221C -3.66263 15.2093 8.04519 15.4089 11.4475 15.4089C 11.7477 15.4089 11.8477 15.1096 11.4475 14.91C 9.14593 14.1119 11.0472 11.1188 12.148 9.82176Z"/>
<path id="path44_fill" d="M 1.22152e-05 8.48042C 1.22152e-05 8.48042 11.2075 9.97696 10.0067 0L 1.22152e-05 8.48042Z"/>
<path id="path45_fill" d="M 29.3547 0.319401C 20.9491 6.80443 -1.26575 23.2664 1.93639 33.7422C 1.93639 33.7422 -5.1684 26.5588 7.84031 15.9832C 12.9437 11.8927 19.7483 6.60487 29.0545 0.0200741C 29.1546 -0.0796955 29.4548 0.219632 29.3547 0.319401Z"/>
<path id="path46_fill" d="M 1.54546 -6.08945e-06L 5.14785 1.19724L 12.6529 3.09286L 26.6622 17.0606L 28.6636 23.1466L 26.7623 27.4366L 18.3567 24.8426C 18.3567 24.8426 21.3587 14.1673 3.5468 6.58479C 3.5468 6.48502 -2.85749 3.79124 1.54546 -6.08945e-06Z"/>
<path id="path47_fill" d="M 10.6522 0.0826567C 10.6522 0.0826567 -5.4586 -1.21435 1.94635 6.46791C 1.94635 6.46791 5.44866 9.66054 10.8523 10.5585C 10.8523 10.5585 23.4608 12.9529 25.1619 28.1179L 25.362 31.2108L 33.2673 35.8002C 33.2673 35.8002 37.27 27.8186 29.0645 17.4426C 29.1645 17.3428 16.5561 3.47482 10.6522 0.0826567Z"/>
<path id="path48_fill" d="M 4.70314 0.199551L 2.50165 0L 0.100079 5.68688L 1.50098 6.68458L -2.44304e-05 11.9724L 2.20146 11.7728L 3.60242 7.18342L 4.40295 6.68458L 6.1041 3.09286L 4.70314 0.199551Z"/>
<path id="path49_fill" d="M 3.60242 5.28778C 3.60242 5.28778 0.700457 5.08826 2.20146 9.57789L -2.44304e-05 12.9701L 12.1081 18.0583L 19.6131 16.6615L 22.515 16.462L 22.0147 14.5664L 24.2162 13.1696L 23.916 9.07905L 21.2142 8.77972L 20.3136 11.3737L 18.3123 11.1742L 17.1115 8.48042L 17.6118 7.08365L 16.411 5.68686L 15.9106 2.59402L 13.0087 2.09517L 11.3076 3.29239L 10.407 2.59402L 8.20548 6.08945e-06L 5.00332 1.89562L 5.00332 3.59172L 3.60242 5.28778Z"/>
<path id="path50_fill" d="M 29.92 59.4627C 13.409 59.4627 6.1076e-06 46.0936 6.1076e-06 29.7314C 6.1076e-06 13.2694 13.409 -6.08945e-06 29.92 -6.08945e-06C 46.4311 -6.08945e-06 59.74 13.3691 59.74 29.7314C 59.74 46.0936 46.331 59.4627 29.92 59.4627ZM 29.92 2.29471C 14.8099 2.29471 2.40161 14.5664 2.40161 29.7314C 2.40161 44.7966 14.7098 57.168 29.92 57.168C 45.0301 57.168 57.4384 44.8963 57.4384 29.7314C 57.3384 14.5664 45.0301 2.29471 29.92 2.29471Z"/>
<path id="path51_fill" d="M 26.8179 53.4765C 12.008 53.4765 1.22152e-05 41.5042 1.22152e-05 26.7383C 1.22152e-05 11.9724 12.008 -1.21789e-05 26.8179 -1.21789e-05C 41.6279 -1.21789e-05 53.6359 11.9724 53.6359 26.7383C 53.6359 41.5042 41.6279 53.4765 26.8179 53.4765ZM 26.8179 1.19724C 12.7085 1.19724 1.2008 12.6707 1.2008 26.7383C 1.2008 40.8058 12.7085 52.2793 26.8179 52.2793C 40.9274 52.2793 52.4351 40.8058 52.4351 26.7383C 52.4351 12.6707 40.9274 1.19724 26.8179 1.19724Z"/>
<path id="path52_fill" d="M 29.82 59.4627C 13.3089 59.4627 2.44304e-05 46.0936 2.44304e-05 29.7314C 2.44304e-05 13.2694 13.409 -6.08945e-06 29.82 -6.08945e-06C 46.331 -6.08945e-06 59.74 13.3691 59.74 29.7314C 59.74 46.0936 46.331 59.4627 29.82 59.4627ZM 29.82 2.29471C 14.7099 2.29471 2.30155 14.5664 2.30155 29.7314C 2.30155 44.7966 14.6098 57.168 29.82 57.168C 44.9301 57.168 57.3384 44.8963 57.3384 29.7314C 57.3384 14.5664 44.9301 2.29471 29.82 2.29471Z"/>
<path id="path53_fill" d="M 26.818 53.4765C 12.008 53.4765 2.44304e-05 41.5042 2.44304e-05 26.7383C 2.44304e-05 11.9724 12.008 -1.21789e-05 26.818 -1.21789e-05C 41.6279 -1.21789e-05 53.6359 11.9724 53.6359 26.7383C 53.6359 41.5042 41.6279 53.4765 26.818 53.4765ZM 26.818 1.19724C 12.7085 1.19724 1.20078 12.6707 1.20078 26.7383C 1.20078 40.8058 12.7085 52.2793 26.818 52.2793C 40.9274 52.2793 52.4351 40.8058 52.4351 26.7383C 52.4351 12.6707 40.9274 1.19724 26.818 1.19724Z"/>
<path id="path54_fill" d="M 125.784 66.9454C 118.379 59.762 114.777 47.7896 114.577 47.191L 112.775 39.8081C 116.378 38.3115 120.381 37.4136 124.583 37.4136C 124.984 37.4136 125.384 37.0145 125.384 36.6154C 125.384 36.2164 124.984 35.8173 124.583 35.8173C 120.28 35.8173 116.078 36.7152 112.375 38.2118L 110.574 31.0283C 110.574 30.9286 110.574 30.8288 110.474 30.7291L 105.971 12.4712L 111.274 8.67996C 111.575 8.48042 114.477 6.2855 113.676 3.79126C 112.876 1.19725 108.773 -6.08945e-06 100.367 -6.08945e-06C 99.4666 -6.08945e-06 98.7661 0.698387 98.7661 1.59631C 98.7661 2.49424 99.4666 3.19263 100.367 3.19263C 109.073 3.19263 110.474 4.58941 110.574 4.78895C 110.574 5.08826 109.974 5.68687 109.473 6.08595L 103.269 10.4758C 102.769 10.8749 102.469 11.4735 102.669 12.1719L 105.17 22.1489C 103.87 24.3438 89.5599 47.8894 67.5452 48.6876L 59.0395 10.8749C 58.8394 9.97695 58.0389 9.47812 57.1383 9.67766C 56.2377 9.8772 55.7373 10.6753 55.9374 11.5733L 59.3397 26.7383L 49.5331 40.8058C 44.5298 37.7129 38.6259 35.917 32.4217 35.917C 14.5097 35.917 6.1076e-06 50.3836 6.1076e-06 68.2424C 6.1076e-06 68.6415 0.400262 69.0406 0.80053 69.0406C 1.2008 69.0406 1.60108 68.6415 1.60108 68.2424C 1.60108 59.3629 5.40362 51.3813 11.4076 45.7942L 29.3196 64.95C 28.8193 65.6484 28.419 66.5463 28.419 67.544C 28.419 69.5394 29.8199 71.3353 31.7212 71.8341C 31.8213 71.8341 68.5459 80.6139 68.5459 80.6139C 69.3464 80.8134 70.247 81.0129 71.1476 81.0129C 76.151 81.0129 80.1537 77.0221 80.1537 72.0337C 80.1537 70.0383 79.4532 68.1427 78.3525 66.6461L 108.272 34.6201L 109.573 39.7083C 99.3665 45.0959 92.3618 55.871 92.3618 68.1427C 92.3618 68.5417 92.7621 68.9408 93.1624 68.9408C 93.5626 68.9408 93.9629 68.5417 93.9629 68.1427C 93.9629 67.3445 93.9629 66.6461 94.0629 65.9477L 122.682 68.4419C 122.982 68.7413 123.282 69.0406 123.583 69.3399C 123.883 69.6392 124.283 69.8387 124.683 69.8387C 125.084 69.8387 125.484 69.6392 125.784 69.3399C 126.485 68.5417 126.385 67.544 125.784 66.9454ZM 60.2403 30.8288L 67.4451 62.8548C 66.5445 62.8548 65.4438 62.8548 64.3431 62.8548C 62.9422 54.4742 58.4391 47.2908 52.1349 42.5019L 60.2403 30.8288ZM 69.1463 70.0383L 63.7427 69.5394C 64.4431 67.4443 65.9441 65.7482 67.9455 64.8502L 69.1463 70.0383ZM 37.8253 63.0544L 51.2343 43.8986C 57.1382 48.488 61.4411 55.1726 62.742 62.9546C 55.1369 62.9546 44.1296 62.9546 37.8253 63.0544ZM 32.4217 37.4136C 38.3257 37.4136 43.9294 39.1097 48.6326 42.003L 33.9227 63.0544C 33.2222 63.0544 32.822 63.0544 32.822 63.0544C 32.7219 63.0544 32.5218 63.0544 32.4217 63.0544L 30.2202 37.5134C 30.9207 37.5134 31.6212 37.4136 32.4217 37.4136ZM 29.3196 37.6131L 31.5211 63.2539C 30.8206 63.4535 30.2202 63.7528 29.7199 64.2516L 11.908 45.1956C 16.7112 41.0053 22.7152 38.2118 29.3196 37.6131ZM 78.9529 71.8341C 78.9529 76.1242 75.4505 79.6162 71.1476 79.6162C 67.145 79.6162 63.8427 76.623 63.4425 72.732L 71.0475 73.4304L 71.1476 73.4304C 71.2477 73.4304 71.3478 73.4304 71.4478 73.4304L 71.5479 73.4304C 71.6479 73.4304 71.6479 73.4304 71.748 73.3307L 71.8481 73.3307L 71.9482 73.2309C 71.9482 73.2309 71.9481 73.2309 72.0482 73.1311L 72.1483 73.0314C 72.1483 73.0314 72.1483 73.0314 72.2483 73.0314L 77.4518 67.4443C 78.3524 68.6415 78.9529 70.138 78.9529 71.8341ZM 71.0475 64.0521L 71.1476 64.0521C 72.6486 64.0521 73.9495 64.4512 75.1503 65.1496L 72.0482 68.5417L 71.0475 64.0521ZM 75.9508 64.2516C 74.5499 63.3537 72.8488 62.8548 71.1476 62.8548C 71.1476 62.8548 71.0475 62.8548 70.7473 62.8548L 68.2457 51.7804C 78.2524 51.2816 88.159 46.3929 97.0649 37.6131C 101.368 33.3231 104.47 29.1327 106.271 26.4389L 107.372 30.7291L 75.9508 64.2516ZM 109.874 41.2049L 111.475 47.8894C 111.475 47.8894 111.475 47.8894 111.475 47.9892C 111.575 48.3883 113.676 55.7712 118.279 62.8548L 100.467 49.1864C 103.069 45.894 106.271 43.2002 109.874 41.2049ZM 94.0629 65.0498C 94.6633 59.3629 96.7648 54.1749 99.9669 49.785L 119.88 64.8502C 120.481 65.7482 121.181 66.5463 121.882 67.3445L 94.0629 65.0498Z"/>
<path id="path55_fill" d="M 8.00533 10.9747L 11.2075 0.698381L 8.90596 1.21789e-05L 5.70381 10.2763L 5.60376 10.2763C 3.20216 10.2763 1.20079 12.2717 1.20079 14.6661C 1.20079 16.2624 2.00133 17.5595 3.20213 18.3576L -2.44304e-05 28.6339L 2.30156 29.3323L 5.50366 19.056L 5.60376 19.056C 8.00537 19.056 10.0067 17.0606 10.0067 14.6661C 10.0067 13.0698 9.20614 11.7728 8.00533 10.9747Z"/>
<path id="path56_fill" d="M 9.40627 2.79354L 1.40091 2.79354C 0.600377 2.79354 1.22152e-05 2.19493 1.22152e-05 1.39677C 1.22152e-05 0.598618 0.600377 6.08945e-06 1.40091 6.08945e-06L 9.40627 6.08945e-06C 10.2068 6.08945e-06 10.8072 0.598618 10.8072 1.39677C 10.8072 2.19493 10.2068 2.79354 9.40627 2.79354Z"/>
<path id="path57_fill" d="M 9.40628 2.79356L 1.40093 2.79356C 0.60039 2.79356 2.44304e-05 2.19492 2.44304e-05 1.39676C 2.44304e-05 0.598606 0.60039 -6.08945e-06 1.40093 -6.08945e-06L 9.40628 -6.08945e-06C 10.2068 -6.08945e-06 10.8072 0.598606 10.8072 1.39676C 10.8072 2.09515 10.1068 2.79356 9.40628 2.79356Z"/>
<path id="path58_fill" d="M 4.40297 8.77972C 6.83465 8.77972 8.80588 6.81432 8.80588 4.38986C 8.80588 1.96541 6.83465 6.08945e-06 4.40297 6.08945e-06C 1.97129 6.08945e-06 0 1.96541 0 4.38986C 0 6.81432 1.97129 8.77972 4.40297 8.77972Z"/>
<path id="path59_fill" d="M 12.9087 3.99078L 2.00133 3.99078C 0.900591 3.99078 -1.22152e-05 3.09286 -1.22152e-05 1.99539C -1.22152e-05 0.897926 0.900591 0 2.00133 0L 12.9087 0C 14.0094 0 14.91 0.897926 14.91 1.99539C 14.91 3.09286 14.0094 3.99078 12.9087 3.99078Z"/>
<path id="path60_fill" d="M 0.60039 1.19724C 0.931982 1.19724 1.20083 0.929219 1.20083 0.598612C 1.20083 0.268004 0.931982 -1.21789e-05 0.60039 -1.21789e-05C 0.268797 -1.21789e-05 1.22152e-05 0.268004 1.22152e-05 0.598612C 1.22152e-05 0.929219 0.268797 1.19724 0.60039 1.19724Z"/>
<path id="path61_fill" d="M 0.600402 1.19724C 0.931995 1.19724 1.20078 0.929219 1.20078 0.598612C 1.20078 0.268004 0.931995 -1.21789e-05 0.600402 -1.21789e-05C 0.268809 -1.21789e-05 2.44304e-05 0.268004 2.44304e-05 0.598612C 2.44304e-05 0.929219 0.268809 1.19724 0.600402 1.19724Z"/>
<path id="path62_fill" d="M 0.600377 1.19724C 0.93197 1.19724 1.20082 0.929219 1.20082 0.598612C 1.20082 0.268004 0.93197 -1.21789e-05 0.600377 -1.21789e-05C 0.268785 -1.21789e-05 0 0.268004 0 0.598612C 0 0.929219 0.268785 1.19724 0.600377 1.19724Z"/>
<path id="path63_fill" d="M 0.600426 1.19724C 0.932019 1.19724 1.2008 0.929219 1.2008 0.598612C 1.2008 0.268004 0.932019 -1.21789e-05 0.600426 -1.21789e-05C 0.268833 -1.21789e-05 -1.22152e-05 0.268004 -1.22152e-05 0.598612C -1.22152e-05 0.929219 0.268833 1.19724 0.600426 1.19724Z"/>
<path id="path64_fill" d="M 2.93527 6.11865C 2.93527 6.11865 5.63708 7.91449 8.43896 7.91449C 11.3409 7.91449 21.3476 7.91449 21.3476 7.91449C 21.3476 7.91449 24.4497 8.11404 24.4497 5.6198C 24.4497 4.02349 22.8486 3.42486 21.1475 3.42486C 19.7465 3.42486 11.9413 3.82393 8.13877 2.82624C 4.83656 1.92831 3.2355 -1.36407 0.833891 0.631323C -0.867247 2.0281 0.133398 4.12326 2.93527 6.11865Z"/>
</defs>
</svg>
