<svg width="820" height="299" viewBox="0 0 820 299" version="1.1" xmlns="http://www.w3.org/2000/svg" xmlns:xlink="http://www.w3.org/1999/xlink" xmlns:figma="http://www.figma.com/figma/ns">
<title>vehicules-2</title>
<desc>Created using Figma</desc>
<g id="Canvas" transform="translate(664 1298)" figma:type="canvas">
<mask id="mask0_alpha" mask-type="alpha">
<path d="M -664 -1298L 156 -1298L 156 -999L -664 -999L -664 -1298Z" fill="#FFFFFF"/>
</mask>
<g id="vehicules-2" style="mix-blend-mode:normal;" mask="url(#mask0_alpha)" figma:type="frame">
<g id="Group" style="mix-blend-mode:normal;" figma:type="frame">
<g id="Vector" style="mix-blend-mode:normal;" figma:type="vector">
<use xlink:href="#path0_fill" transform="matrix(-1 0 0 1 -233.002 -1145.89)" fill="#F26722" style="mix-blend-mode:normal;"/>
</g>
<g id="Vector" style="mix-blend-mode:normal;" figma:type="vector">
<use xlink:href="#path1_fill" transform="matrix(-1 0 0 1 -232.898 -1068.82)" fill="#CF581D" style="mix-blend-mode:normal;"/>
</g>
<g id="Vector" style="mix-blend-mode:normal;" figma:type="vector">
<use xlink:href="#path2_fill" transform="matrix(-1 0 0 1 -539.603 -1087.79)" fill="#47494F" style="mix-blend-mode:normal;"/>
</g>
<g id="Vector" style="mix-blend-mode:normal;" figma:type="vector">
<use xlink:href="#path3_fill" transform="matrix(-1 0 0 1 -285.241 -1085.68)" fill="#47494F" style="mix-blend-mode:normal;"/>
</g>
<g id="Vector" style="mix-blend-mode:normal;" figma:type="vector">
<use xlink:href="#path4_fill" transform="matrix(-0.0301778 -0.9995 -0.9995 0.0301783 -544.015 -1012.47)" fill="#6B6C72" style="mix-blend-mode:normal;"/>
</g>
<g id="Vector" style="mix-blend-mode:normal;" figma:type="vector">
<use xlink:href="#path5_fill" transform="matrix(-0.0301175 -0.9995 -0.9995 0.030118 -553.231 -1021.14)" fill="#C2C2C5" style="mix-blend-mode:normal;"/>
</g>
<g id="Vector" style="mix-blend-mode:normal;" figma:type="vector">
<use xlink:href="#path6_fill" transform="matrix(-0.0301042 -0.9995 -0.9995 0.0301047 -557.43 -1025.09)" fill="#47494F" style="mix-blend-mode:normal;"/>
</g>
<g id="Vector" style="mix-blend-mode:normal;" figma:type="vector">
<use xlink:href="#path7_fill" transform="matrix(-0.0301265 -0.9995 -0.9995 0.030127 -559.735 -1027.26)" fill="#C2C2C5" style="mix-blend-mode:normal;"/>
</g>
<g id="Vector" style="mix-blend-mode:normal;" figma:type="vector">
<use xlink:href="#path8_fill" transform="matrix(-1 0 0 1 -569.092 -1057.37)" fill="#939498" style="mix-blend-mode:normal;"/>
</g>
<g id="Vector" style="mix-blend-mode:normal;" figma:type="vector">
<use xlink:href="#path9_fill" transform="matrix(-0.0301051 -0.9995 -0.9995 0.0301056 -289.649 -1011.11)" fill="#6B6C72" style="mix-blend-mode:normal;"/>
</g>
<g id="Vector" style="mix-blend-mode:normal;" figma:type="vector">
<use xlink:href="#path10_fill" transform="matrix(-0.0300687 -0.9995 -0.9995 0.0300692 -298.862 -1019.78)" fill="#C2C2C5" style="mix-blend-mode:normal;"/>
</g>
<g id="Vector" style="mix-blend-mode:normal;" figma:type="vector">
<use xlink:href="#path11_fill" transform="matrix(-0.0301962 -0.9995 -0.9995 0.0301967 -298.747 -1022.87)" fill="#C8CCC8" style="mix-blend-mode:normal;"/>
</g>
<g id="Vector" style="mix-blend-mode:normal;" figma:type="vector">
<use xlink:href="#path12_fill" transform="matrix(-0.0301069 -0.9995 -0.9995 0.0301074 -303.063 -1023.74)" fill="#47494F" style="mix-blend-mode:normal;"/>
</g>
<g id="Vector" style="mix-blend-mode:normal;" figma:type="vector">
<use xlink:href="#path13_fill" transform="matrix(-0.0301274 -0.9995 -0.9995 0.0301279 -305.365 -1025.91)" fill="#C2C2C5" style="mix-blend-mode:normal;"/>
</g>
<g id="Vector" style="mix-blend-mode:normal;" figma:type="vector">
<use xlink:href="#path14_fill" transform="matrix(-0.0301188 -0.9995 -0.9995 0.0301193 -314.308 -1034.33)" fill="#939498" style="mix-blend-mode:normal;"/>
</g>
<g id="Vector" style="mix-blend-mode:normal;" figma:type="vector">
<use xlink:href="#path15_fill" transform="matrix(-1 0 0 1 -450.263 -1139.49)" fill="#C2C2C5" style="mix-blend-mode:normal;"/>
</g>
<g id="Vector" style="mix-blend-mode:normal;" figma:type="vector">
<use xlink:href="#path16_fill" transform="matrix(-1 0 0 1 -381.438 -1139.32)" fill="#C2C2C5" style="mix-blend-mode:normal;"/>
</g>
<g id="Vector" style="mix-blend-mode:normal;" figma:type="vector">
<use xlink:href="#path17_fill" transform="matrix(-1 0 0 1 -386.833 -1119.75)" fill="#C2C2C5" style="mix-blend-mode:normal;"/>
</g>
<g id="Vector" style="mix-blend-mode:normal;" figma:type="vector">
<use xlink:href="#path18_fill" transform="matrix(-1 0 0 1 -324.95 -1133.57)" fill="#C2C2C5" style="mix-blend-mode:normal;"/>
</g>
<g id="Vector" style="mix-blend-mode:normal;" figma:type="vector">
<use xlink:href="#path19_fill" transform="matrix(-1 0 0 1 -232.856 -1072.5)" fill="#C2C2C5" style="mix-blend-mode:normal;"/>
</g>
<g id="Vector" style="mix-blend-mode:normal;" figma:type="vector">
<use xlink:href="#path20_fill" transform="matrix(-1 0 0 1 -396.44 -1095.15)" fill="#47494F" style="mix-blend-mode:normal;"/>
</g>
<g id="Vector" style="mix-blend-mode:normal;" figma:type="vector">
<use xlink:href="#path21_fill" transform="matrix(-1 0 0 1 -214.909 -1063.57)" fill="#47494F" style="mix-blend-mode:normal;"/>
</g>
<g id="Vector" style="mix-blend-mode:normal;" figma:type="vector">
<use xlink:href="#path22_fill" transform="matrix(-1 0 0 1 -617.84 -1049.34)" fill="#47494F" style="mix-blend-mode:normal;"/>
</g>
<g id="Group" style="mix-blend-mode:normal;" figma:type="frame">
<g id="Vector" style="mix-blend-mode:normal;" figma:type="vector">
<use xlink:href="#path23_fill" transform="matrix(-1 0 0 1 -377.174 -1108.82)" fill="#47494F" style="mix-blend-mode:normal;"/>
</g>
</g>
<g id="Vector" style="mix-blend-mode:normal;" figma:type="vector">
<use xlink:href="#path24_fill" transform="matrix(-1 0 0 1 -634.763 -1100.89)" fill="#C2C2C5" style="mix-blend-mode:normal;"/>
</g>
</g>
<g id="carava" style="mix-blend-mode:normal;" figma:type="frame">
<g id="path272" style="mix-blend-mode:normal;" figma:type="vector">
<use xlink:href="#path25_fill" transform="matrix(0.133333 0 0 -0.133333 -126.899 -1055.35)" fill="#EFE8D8" style="mix-blend-mode:normal;"/>
</g>
<g id="path436" style="mix-blend-mode:normal;" figma:type="vector">
<use xlink:href="#path26_fill" transform="matrix(0.133333 0 0 -0.133333 83.6526 -1052.97)" fill="#7C715B" style="mix-blend-mode:normal;"/>
</g>
<g id="path438" style="mix-blend-mode:normal;" figma:type="vector">
<use xlink:href="#path27_fill" transform="matrix(0.133333 0 0 -0.133333 -126.898 -1215.95)" fill="#B0CAC8" style="mix-blend-mode:normal;"/>
</g>
<g id="path440" style="mix-blend-mode:normal;" figma:type="vector">
<use xlink:href="#path28_fill" transform="matrix(0.133333 0 0 -0.133333 -126.898 -1219.91)" fill="#B0CAC8" style="mix-blend-mode:normal;"/>
</g>
<g id="path442" style="mix-blend-mode:normal;" figma:type="vector">
<use xlink:href="#path29_fill" transform="matrix(0.133333 0 0 -0.133333 -126.898 -1224.54)" fill="#B0CAC8" style="mix-blend-mode:normal;"/>
</g>
<g id="path448" style="mix-blend-mode:normal;" figma:type="vector">
<use xlink:href="#path30_fill" transform="matrix(0.133333 0 0 -0.133333 -126.898 -1148.15)" fill="#E2DBCC" style="mix-blend-mode:normal;"/>
</g>
<g id="path450" style="mix-blend-mode:normal;" figma:type="vector">
<use xlink:href="#path31_fill" transform="matrix(0.133333 0 0 -0.133333 -126.897 -1132.05)" fill="#B0CAC8" style="mix-blend-mode:normal;"/>
</g>
<g id="path456" style="mix-blend-mode:normal;" figma:type="vector">
<use xlink:href="#path32_fill" transform="matrix(0.133333 0 0 -0.133333 -177.147 -1064.8)" fill="#4C4D42" style="mix-blend-mode:normal;"/>
</g>
<g id="path458" style="mix-blend-mode:normal;" figma:type="vector">
<use xlink:href="#path33_fill" transform="matrix(0.133333 0 0 -0.133333 -156.916 -1071.7)" fill="#4F4F4F" style="mix-blend-mode:normal;"/>
</g>
<g id="path460" style="mix-blend-mode:normal;" figma:type="vector">
<use xlink:href="#path34_fill" transform="matrix(0.133333 0 0 -0.133333 -161.484 -1122.31)" fill="#EFEAE4" style="mix-blend-mode:normal;"/>
</g>
<g id="path462" style="mix-blend-mode:normal;" figma:type="vector">
<use xlink:href="#path35_fill" transform="matrix(0.133333 0 0 -0.133333 -182.368 -1061.43)" fill="#EAE5E7" style="mix-blend-mode:normal;"/>
</g>
<g id="path464" style="mix-blend-mode:normal;" figma:type="vector">
<use xlink:href="#path36_fill" transform="matrix(0.133333 0 0 -0.133333 86.7731 -1010.88)" fill="#6B6C72" style="mix-blend-mode:normal;"/>
</g>
<g id="path466" style="mix-blend-mode:normal;" figma:type="vector">
<use xlink:href="#path37_fill" transform="matrix(0.133333 0 0 -0.133333 100.394 -1024.6)" fill="#C2C2C5" style="mix-blend-mode:normal;"/>
</g>
<g id="path468" style="mix-blend-mode:normal;" figma:type="vector">
<use xlink:href="#path38_fill" transform="matrix(0.133333 0 0 -0.133333 104.643 -1028.87)" fill="#47494F" style="mix-blend-mode:normal;"/>
</g>
<g id="path470" style="mix-blend-mode:normal;" figma:type="vector">
<use xlink:href="#path39_fill" transform="matrix(0.133333 0 0 -0.133333 106.471 -1030.71)" fill="#939498" style="mix-blend-mode:normal;"/>
</g>
<g id="path472" style="mix-blend-mode:normal;" figma:type="vector">
<use xlink:href="#path40_fill" transform="matrix(0.133333 0 0 -0.133333 -75.9921 -1064.8)" fill="#ED7220" style="mix-blend-mode:normal;"/>
</g>
<g id="path478" style="mix-blend-mode:normal;" figma:type="vector">
<use xlink:href="#path41_fill" transform="matrix(0.133333 0 0 -0.133333 -126.898 -1155.82)" fill="#92ACAB" style="mix-blend-mode:normal;"/>
</g>
<g id="path480" style="mix-blend-mode:normal;" figma:type="vector">
<use xlink:href="#path42_fill" transform="matrix(0.133333 0 0 -0.133333 -126.898 -1159.6)" fill="#C2C2C5" style="mix-blend-mode:normal;"/>
</g>
<g id="path484" style="mix-blend-mode:normal;" figma:type="vector">
<use xlink:href="#path43_fill" transform="matrix(0.133333 0 0 -0.133333 -78.7656 -1154.67)" fill="#92ACAB" style="mix-blend-mode:normal;"/>
</g>
<g id="path486" style="mix-blend-mode:normal;" figma:type="vector">
<use xlink:href="#path44_fill" transform="matrix(0.133333 0 0 -0.133333 -74.0997 -1158.45)" fill="#C2C2C5" style="mix-blend-mode:normal;"/>
</g>
<g id="path1164" style="mix-blend-mode:normal;" figma:type="vector">
<use xlink:href="#path45_fill" transform="matrix(0.133333 0 0 -0.133333 14.9454 -1147.28)" fill="#92ACAB" style="mix-blend-mode:normal;"/>
</g>
</g>
<g id="Rectangle 21" style="mix-blend-mode:normal;" figma:type="rounded-rectangle">
<use xlink:href="#path46_fill" transform="translate(23.242 -1234.65)" fill="#C4C4C4" style="mix-blend-mode:normal;"/>
</g>
</g>
</g>
<defs>
<path id="path0_fill" d="M 416.629 109.705C 416.498 106.415 414.129 66.4098 414.129 66.4098C 414.129 66.4098 413.997 61.9355 412.944 58.5139C 410.049 49.9601 404.917 46.0122 392.415 44.9594L 288.06 37.9848L 279.769 37.4584C 273.847 33.5105 239.764 8.77015 229.763 1.53229C 228.447 0.611113 228.183 0.479524 226.736 0.347927C 170.281 -1.62603 140.277 5.08541 113.563 13.2444C 72.9 25.483 1.57489 61.8039 1.57489 76.9376C 1.57489 87.8601 -0.530613 99.4407 0.127368 100.888C 0.653753 102.336 11.0498 108.389 24.0778 109.705C 37.1058 111.021 60.0036 110.232 60.9247 110.758C 61.8459 111.284 303.588 114.048 303.588 114.048C 303.588 114.048 377.019 107.073 391.231 111.679C 405.312 116.285 416.761 112.995 416.629 109.705Z"/>
<path id="path1_fill" d="M 414.891 0C 415.549 12.1069 416.602 30.399 416.733 32.6362C 416.865 35.9261 405.416 39.216 391.204 34.7417C 377.123 30.2674 303.561 37.1104 303.561 37.1104C 303.561 37.1104 61.9502 34.3469 60.8974 33.8205C 59.9762 33.2941 37.0785 34.0837 24.0505 32.7678C 11.0225 31.4518 0.626366 25.3983 0.0999812 23.9507C -0.426403 22.5031 1.28439 11.0542 1.54759 0.131605L 414.891 0.131605L 414.891 0Z"/>
<path id="path2_fill" d="M 2.3828 56.6048C 0.672048 51.8673 -0.117432 44.4979 0.0141638 39.234C 0.672145 16.8624 19.3587 -0.640035 41.7301 0.0179519C 64.1014 0.675938 81.6038 19.3628 80.9458 41.7343C 80.8142 46.9982 80.8141 48.9722 78.8401 53.5781L 2.3828 56.6048Z"/>
<path id="path3_fill" d="M 0.657981 50.6828C 0.131596 47.2613 0 42.5238 0 39.497C 0.657981 16.9939 19.3447 -0.640156 41.716 0.0178303C 64.0873 0.675817 81.5896 19.4942 80.9316 41.9974C 80.8 46.6033 80.8 48.5772 79.6157 51.9988L 0.657981 50.6828Z"/>
<path id="path4_fill" d="M 35.0048 70.0092C 54.3375 70.0092 70.0097 54.3371 70.0097 35.0046C 70.0097 15.6721 54.3375 1.6064e-05 35.0048 1.6064e-05C 15.6722 1.6064e-05 0 15.6721 0 35.0046C 0 54.3371 15.6722 70.0092 35.0048 70.0092Z"/>
<path id="path5_fill" d="M 26.0562 52.1121C 40.4467 52.1121 52.1126 40.4464 52.1126 26.056C 52.1126 11.6657 40.4467 0 26.0562 0C 11.6658 0 6.42565e-05 11.6657 6.42565e-05 26.056C 6.42565e-05 40.4464 11.6658 52.1121 26.0562 52.1121Z"/>
<path id="path6_fill" d="M 21.9767 43.9531C 34.1141 43.9531 43.9536 34.1139 43.9536 21.9765C 43.9536 9.83922 34.1141 8.03199e-06 21.9767 8.03199e-06C 9.83929 8.03199e-06 3.21282e-05 9.83922 3.21282e-05 21.9765C 3.21282e-05 34.1139 9.83929 43.9531 21.9767 43.9531Z"/>
<path id="path7_fill" d="M 19.7396 39.4788C 30.6414 39.4788 39.4791 30.6412 39.4791 19.7394C 39.4791 8.83762 30.6414 -1.6064e-05 19.7396 -1.6064e-05C 8.83768 -1.6064e-05 -3.21282e-05 8.83762 -3.21282e-05 19.7394C -3.21282e-05 30.6412 8.83768 39.4788 19.7396 39.4788Z"/>
<path id="path8_fill" d="M 21.9793 11.3201C 22.1109 5.26658 17.3734 0.134274 11.32 0.00267635C 5.26659 -0.128921 0.134208 4.60859 0.00261207 10.6621C -0.128984 16.7155 4.60861 21.8478 10.662 21.9794C 16.7155 22.111 21.8477 17.3735 21.9793 11.3201Z"/>
<path id="path9_fill" d="M 35.0049 70.0092C 54.3375 70.0092 70.0098 54.337 70.0098 35.0046C 70.0098 15.6721 54.3375 1.6064e-05 35.0049 1.6064e-05C 15.6722 1.6064e-05 1.60641e-05 15.6721 1.60641e-05 35.0046C 1.60641e-05 54.337 15.6722 70.0092 35.0049 70.0092Z"/>
<path id="path10_fill" d="M 26.0562 52.1121C 40.4467 52.1121 52.1125 40.4464 52.1125 26.056C 52.1125 11.6657 40.4467 0 26.0562 0C 11.6658 0 0 11.6657 0 26.056C 0 40.4464 11.6658 52.1121 26.0562 52.1121Z"/>
<path id="path11_fill" d="M 23.0295 46.0586C 35.7484 46.0586 46.059 35.7481 46.059 23.0293C 46.059 10.3106 35.7484 -1.6064e-05 23.0295 -1.6064e-05C 10.3107 -1.6064e-05 -1.60641e-05 10.3106 -1.60641e-05 23.0293C -1.60641e-05 35.7481 10.3107 46.0586 23.0295 46.0586Z"/>
<path id="path12_fill" d="M 21.9767 43.9531C 34.1141 43.9531 43.9535 34.1139 43.9535 21.9765C 43.9535 9.83922 34.1141 8.03199e-06 21.9767 8.03199e-06C 9.83931 8.03199e-06 -3.21282e-05 9.83922 -3.21282e-05 21.9765C -3.21282e-05 34.1139 9.83931 43.9531 21.9767 43.9531Z"/>
<path id="path13_fill" d="M 19.7396 39.4788C 30.6414 39.4788 39.4792 30.6412 39.4792 19.7394C 39.4792 8.83762 30.6414 -1.6064e-05 19.7396 -1.6064e-05C 8.8377 -1.6064e-05 -1.60641e-05 8.83762 -1.60641e-05 19.7394C -1.60641e-05 30.6412 8.8377 39.4788 19.7396 39.4788Z"/>
<path id="path14_fill" d="M 11.0542 22.1082C 17.1592 22.1082 22.1084 17.1591 22.1084 11.0541C 22.1084 4.94906 17.1592 -8.03199e-06 11.0542 -8.03199e-06C 4.94911 -8.03199e-06 3.21282e-05 4.94906 3.21282e-05 11.0541C 3.21282e-05 17.1591 4.94911 22.1082 11.0542 22.1082Z"/>
<path id="path15_fill" d="M 39.742 33.9521L 14.8703 33.5573L 3.2128e-05 8.03206e-06L 6.57984 8.03206e-06C 7.50101 0.526397 11.0541 3.81631 15.66 8.29062C 19.4763 12.1069 39.742 33.9521 39.742 33.9521Z"/>
<path id="path16_fill" d="M 76.8522 33.5256L 9.86968 31.9464L -3.2128e-05 4.70572C 34.3466 -1.08456 63.9557 0.0998116 63.9557 0.0998116L 76.8522 33.5256Z"/>
<path id="path17_fill" d="M 66.0613 8.03206e-06L 71.4567 13.9493L 4.47424 12.3701L -6.42559e-05 8.03206e-06L 66.0613 8.03206e-06Z"/>
<path id="path18_fill" d="M 60.4363 26.1879L 6.61355 26.8458C 6.61355 26.8458 -4.7037 26.9774 2.27089 21.7136C 18.7204 9.08022 42.2761 1.97397 52.2774 8.03206e-06L 60.4363 26.1879Z"/>
<path id="path19_fill" d="M 2.51063 0L 16.4599 0.394776L 22.3817 10.3962L 1.19467 9.73819C 1.19467 9.73819 -2.22683 1.97396 2.51063 0Z"/>
<path id="path20_fill" d="M 0 2.37878C 0 3.69475 1.05283 4.87912 2.36879 4.87912L 14.344 5.2739C 15.66 5.2739 16.8444 4.22114 16.8444 2.90516C 16.8444 1.58919 15.7915 0.404823 14.4756 0.404823L 2.50036 0.010007C 1.0528 -0.12159 0 1.06281 0 2.37878Z"/>
<path id="path21_fill" d="M 40.3287 1.99039C 40.3287 3.30637 40.3287 16.0713 40.3287 16.0713C 40.3287 16.0713 40.5919 18.5717 37.8284 18.5717C 36.7756 18.5717 15.7202 18.5717 11.2459 18.5717C 9.27197 18.5717 7.56124 18.0453 6.24528 15.9397C 3.87655 11.9918 2.42902 8.96508 0.849868 5.80675C -1.25567 1.59563 0.71824 0.0164336 4.92932 0.0164336C 13.4831 0.0164336 36.3808 0.0164336 37.8284 0.0164336C 39.2759 -0.115164 40.3287 0.542823 40.3287 1.99039Z"/>
<path id="path22_fill" d="M 3.62916 8.03206e-06C 8.76141 8.03206e-06 4.81356 3.55311 11.3934 3.55311C 13.2357 3.55311 30.6064 3.55311 32.5803 3.55311C 34.6859 3.55311 36.6598 4.60591 36.6598 7.23786C 36.6598 7.76425 36.6598 14.0809 36.6598 14.4757C 36.6598 17.634 34.8175 18.1604 31.0012 18.1604C 25.869 18.1604 7.44551 18.1604 5.33997 18.1604C 1.91848 18.1604 0.734013 17.1076 0.470821 15.6601C -0.450352 11.449 -0.318724 8.03206e-06 3.62916 8.03206e-06Z"/>
<path id="path23_fill" d="M 144.545 73.1681L 145.072 73.1681L 145.072 72.6417C 145.072 72.3785 147.046 51.5861 147.046 31.1886C 147.046 10.6594 140.861 1.31598 140.597 0.921189L 139.413 0.789584C 139.545 0.921181 145.861 11.0542 145.861 31.1886C 145.861 49.7438 144.15 68.6938 143.887 72.1153L 26.6352 70.9309C 26.5036 70.9309 23.2138 70.9309 12.4229 46.1906C 0.447625 18.95 0.973882 15.5285 1.10548 15.1337C 1.89506 14.7389 10.9753 4.07953 14.002 1.05279L 13.4755 -8.03206e-06C 8.73809 4.86909 1.2372 13.6861 0.579222 14.2125C -0.210355 14.6073 -2.18436 15.5285 11.37 46.5854C 22.4241 71.5889 25.8456 71.9837 26.6352 71.9837L 144.545 73.1681Z"/>
<path id="path24_fill" d="M 0.524364 4.30835C 0.524364 4.30835 8.28854 13.7833 10.3941 20.8896C 12.4996 27.9958 14.4736 31.6806 15.5264 22.6004C 16.5791 13.5201 11.8416 6.54547 7.76215 2.46595C 3.68267 -1.48197 -1.71277 -0.560754 0.524364 4.30835Z"/>
<path id="path25_fill" d="M 1583.42 -3.13423e-05C 879.165 -3.13423e-05 215.704 -3.13423e-05 146.858 -3.13423e-05C -4.8763 -3.13423e-05 0.0179645 56.6788 0.0179645 56.6788L 0.00149477 1270.43C 85.639 1580.95 1081.72 1654.88 1658.06 1654.88C 2234.4 1654.88 2843.77 1525.5 3082.38 1425.69C 3320.99 1325.88 3368.72 1237.16 3431.12 1044.93C 3493.53 852.703 3607.33 450.997 3617.11 381.989C 3626.9 312.975 3553.49 207.015 3467.83 110.903C 3382.18 14.7849 3338.12 -3.13423e-05 3338.12 -3.13423e-05C 3338.12 -3.13423e-05 2785.04 -3.13423e-05 2138.96 -3.13423e-05L 1583.42 -3.13423e-05Z"/>
<path id="path26_fill" d="M 581.845 5.74609e-05C 581.845 5.74609e-05 549.571 242.747 286.487 242.747C 64.2411 242.747 3.63112e-05 54.8335 3.63112e-05 5.74609e-05L 581.845 5.74609e-05Z"/>
<path id="path27_fill" d="M 1.55619e-06 3.13423e-05L 1063.83 3.13423e-05L 1063.83 18.4815L 1.55619e-06 18.4815L 1.55619e-06 3.13423e-05Z"/>
<path id="path28_fill" d="M 1.55619e-06 3.13423e-05L 1063.83 3.13423e-05L 1063.83 9.12691L 1.55619e-06 9.12691L 1.55619e-06 3.13423e-05Z"/>
<path id="path29_fill" d="M 1063.83 -4.17897e-05L 1063.83 83.4833L 48.4761 83.4833C 22.648 59.284 9.59471 28.2539 -1.3487e-05 1.50308L 1063.83 -4.17897e-05Z"/>
<path id="path30_fill" d="M -1.3487e-05 7.3132e-05L 1063.83 7.3132e-05L 1063.83 24.6435L -1.3487e-05 24.6435L -1.3487e-05 7.3132e-05Z"/>
<path id="path31_fill" d="M 3532.51 103.51L 1.42651e-05 103.51L 0.00212161 -6.26846e-05L 3561.53 -6.26846e-05C 3552.4 33.1001 3542.61 67.9976 3532.51 103.51Z"/>
<path id="path32_fill" d="M 3.82565e-06 -2.08949e-05L 376.877 -2.08949e-05L 376.877 51.7524L 3.82565e-06 51.7524L 3.82565e-06 -2.08949e-05Z"/>
<path id="path33_fill" d="M 3.50144e-06 -2.08949e-05L 225.15 -2.08949e-05L 225.15 379.532L 3.50144e-06 379.532L 3.50144e-06 -2.08949e-05Z"/>
<path id="path34_fill" d="M 2.33429e-06 -5.22372e-06L 259.409 -5.22372e-06L 259.409 46.8276L 2.33429e-06 46.8276L 2.33429e-06 -5.22372e-06Z"/>
<path id="path35_fill" d="M 0 0L 39.1601 0L 39.1601 105.35L 0 105.35L 0 0Z"/>
<path id="path36_fill" d="M 526.167 264.935C 526.167 118.611 408.388 -4.17897e-05 263.084 -4.17897e-05C 117.79 -4.17897e-05 -6.22478e-05 118.611 -6.22478e-05 264.935C -6.22478e-05 411.254 117.79 529.859 263.084 529.859C 408.388 529.859 526.167 411.254 526.167 264.935Z"/>
<path id="path37_fill" d="M 321.853 162.061C 321.853 72.555 249.804 -5.22372e-06 160.927 -5.22372e-06C 72.0548 -5.22372e-06 0.000103746 72.555 0.000103746 162.061C 0.000103746 251.557 72.0548 324.112 160.927 324.112C 249.804 324.112 321.853 251.557 321.853 162.061Z"/>
<path id="path38_fill" d="M 258.112 129.967C 258.112 58.182 200.335 -5.22372e-06 129.056 -5.22372e-06C 57.782 -5.22372e-06 0.000103746 58.182 0.000103746 129.967C 0.000103746 201.735 57.782 259.923 129.056 259.923C 200.335 259.923 258.112 201.735 258.112 129.967Z"/>
<path id="path39_fill" d="M 230.702 116.166C 230.702 51.9984 179.061 2.08949e-05 115.351 2.08949e-05C 51.6415 2.08949e-05 0 51.9984 0 116.166C 0 180.307 51.6415 232.321 115.351 232.321C 179.061 232.321 230.702 180.307 230.702 116.166Z"/>
<path id="path40_fill" d="M -1.55619e-05 -2.08949e-05L 83.2047 -2.08949e-05L 83.2047 51.7524L -1.55619e-05 51.7524L -1.55619e-05 -2.08949e-05Z"/>
<path id="path41_fill" d="M -1.3487e-05 415.26L 248.418 415.26C 248.418 415.26 292.469 412.794 292.469 353.649C 292.469 294.504 292.469 49.2864 292.469 49.2864C 292.469 49.2864 298.588 9.40269e-05 236.185 9.40269e-05C 173.776 9.40269e-05 -1.3487e-05 9.40269e-05 -1.3487e-05 9.40269e-05L -1.3487e-05 415.26Z"/>
<path id="path42_fill" d="M 210.968 0C 155.22 0 0 0 0 0L 0 358.581L 221.889 358.581C 221.889 358.581 261.239 356.452 261.239 305.379C 261.239 254.306 261.239 42.5519 261.239 42.5519C 261.239 42.5519 266.704 0 210.968 0Z"/>
<path id="path43_fill" d="M 124.812 431.281L 62.4032 431.281C 62.4032 431.281 9.01773e-11 433.741 9.01773e-11 354.885C 9.01773e-11 276.024 9.01773e-11 64.6973 9.01773e-11 64.6973C 9.01773e-11 64.6973 -0.00533268 0 81.9825 0C 163.97 0 429.497 0 429.497 0C 429.497 0 549.417 7.38724 531.064 139.237C 531.064 139.237 485.786 285.882 386.668 363.513C 287.555 441.139 237.39 431.281 124.812 431.281Z"/>
<path id="path44_fill" d="M 373.096 -0.000114922C 373.096 -0.000114922 142.436 -0.000114922 71.2155 -0.000114922C -0.00530889 -0.000114922 -3.11238e-05 56.2081 -3.11238e-05 56.2081C -3.11238e-05 56.2081 -3.11238e-05 239.778 -3.11238e-05 308.289C -3.11238e-05 372.767 48.0294 374.661 53.6705 374.661C 54.0211 374.661 54.207 374.655 54.207 374.655L 108.419 374.655C 128.227 374.655 145.804 375.003 161.968 375.003C 225.603 375.003 267.237 369.558 335.898 315.783C 421.992 248.342 461.326 120.959 461.326 120.959C 477.272 6.41898 373.096 -0.000114922 373.096 -0.000114922Z"/>
<path id="path45_fill" d="M 1328.9 49.2918L 67.8796 49.2918L 67.8796 645.688L 1328.9 645.688L 1328.9 49.2918ZM -2.07493e-05 694.98L -2.07493e-05 7.3132e-05L 1396.79 7.3132e-05L 1396.79 694.98L -2.07493e-05 694.98Z"/>
<path id="path46_fill" d="M 0 0L 169.645 0L 169.645 81.7787L 0 81.7787L 0 0Z"/>
</defs>
</svg>
